<svg xmlns="http://www.w3.org/2000/svg" preserveAspectRatio="xMinYMin" viewBox="0 0 500 500" width="500pt" height="500pt">

	<style>
        .rotate {
            transform-box: fill-box;
            transform-origin: center;
            animation: rotationClockwise 20s infinite linear;
        }

        .rotateAC {
            transform-box: fill-box;
            transform-origin: center;
            animation: rotationAnticlockwise 20s infinite linear;
        }

        .rotateTree {
            transform-box: fill-box;
            transform-origin: center;
            animation: rotationAnticlockwise 40s infinite linear;
        }

        @keyframes rotationClockwise {
            from {
                transform: rotate(0deg);
            }
            to {
                transform: rotate(359deg);
            }
        }

        @keyframes rotationAnticlockwise {
            from {
                transform: rotate(0deg);
            }
            to {
                transform: rotate(-359deg);
            }
        }
	</style>

<g style="isolation:isolate" id="cogs"><path d=" M 395.165 402.242 C 394.852 403.122 401.993 409.999 409.161 411.493 C 411.132 410.345 427.921 409.188 423.269 420.795 C 419.563 433.209 406.968 418.843 406.074 416.25 C 403.951 413.24 390.672 412.536 390.072 413.635 C 386.206 420.714 381.322 427.062 375.66 432.53 C 375.203 432.972 375.755 438.209 378.661 441.432 C 384.261 441.778 393.117 439.947 383.537 451.272 C 382.567 452.108 369.434 464.564 373.903 444.14 C 373.985 441.565 368.999 438.286 368.809 438.431 C 362.641 443.16 355.797 446.973 348.51 449.727 C 348.146 449.864 348.511 458.089 351.041 463.549 C 361.605 470.973 361.185 475.465 351.951 477.846 C 347.087 479.1 338.062 476.803 345.604 465.76 C 347.109 459.758 341.892 451.901 341.648 451.968 C 335.435 453.689 328.969 454.66 322.38 454.804 C 322.085 454.811 320.166 459.595 321.135 461.046 C 324.966 466.345 322.078 469.129 317.796 468.632 C 312.039 467.964 313.618 466.21 316.975 461.428 C 317.511 460.07 317.345 454.782 316.758 454.746 C 312.177 454.47 306.724 453.721 302.107 452.61 C 299.727 452.037 297.398 451.361 295.123 450.589 C 294.512 450.382 291.058 454.602 288.866 460.776 C 289.565 467.057 298.741 481.535 280.014 475.831 C 269.263 473.181 272.21 464.879 283.315 459.196 C 284.946 456.229 287.684 450.931 287.4 447.506 C 279.496 443.856 272.395 438.985 266.272 433.182 C 263.782 435.536 261.829 435.274 260.353 438.702 C 258.33 447.127 257.132 446.479 253.214 441.667 C 248.341 435.683 250.197 435.926 256.238 435.045 C 260.084 432.329 259.729 431.236 261.872 428.665 C 256.076 422.221 251.368 414.865 247.944 406.915 C 247.748 406.461 240.933 406.761 236.092 411.769 C 235.864 415.64 230.626 429.162 223.651 416.467 C 218.528 406.816 224.684 404.859 234.122 407.425 C 240.482 403.245 245.587 400.755 245.431 400.281 C 242.896 392.56 241.531 384.396 241.497 376.049 C 237.062 375.52 237.078 373.134 232.977 374.888 C 225.006 382.921 227.638 358.201 233.802 369.435 C 237.809 370.976 238.074 369.748 241.944 367.343 C 242.307 363.961 242.892 360.564 243.709 357.168 C 244.776 352.74 246.196 348.488 247.934 344.437 C 248.462 343.205 239.952 336.852 232.73 334.901 C 227.156 334.99 218.164 337.607 222.047 326.802 C 226.652 315.905 230.594 323.677 234.591 328.7 C 238.108 331.35 246.546 334.526 253.57 333.675 C 256.888 328.383 260.796 323.554 265.181 319.256 C 265.753 315.174 266.912 313.471 262.37 311.572 C 251.442 310.944 251.31 307.679 257.051 302.677 C 263.344 297.193 267.597 296.374 265.501 306.989 C 265.355 310.511 268.136 309.406 274.588 311.365 C 280.345 307.249 286.642 303.907 293.302 301.447 C 293.972 299.781 291.703 293.837 290.265 288.9 C 283.72 284.963 283.076 276.366 288.7 272.267 C 295.811 270.109 299.141 278.465 295.806 287.831 C 296.845 294.164 300.5 299.168 301.123 299.009 C 306.24 297.701 311.519 296.898 316.89 296.645 C 317.415 296.62 321.203 290.96 319.397 288.237 C 315.816 286.288 317.839 281.601 322.94 283.149 C 326.604 284.261 327.942 285.55 324.048 289.632 C 321.098 292.65 325.463 296.707 326.035 296.746 C 330.222 297.037 333.9 297.587 337.846 298.468 C 338.281 298.565 345.538 288.261 345.443 285.912 C 345.342 283.412 338.026 263.738 353.66 269.788 C 373.26 277.372 352.32 285.068 352.201 286.249 C 349.996 289.437 346.998 301.086 347.675 301.332 C 356.157 304.407 363.849 308.836 370.561 314.307 C 370.8 314.503 376.129 310.787 376.969 307.846 C 377.062 303.684 378.334 298.322 384.054 305.525 C 389.819 312.785 386.244 312.618 381.566 311.958 C 377.696 312.863 375.084 318.291 375.35 318.546 C 382.429 325.342 388.176 333.391 392.313 342.234 C 392.495 342.624 399.228 340.569 403.271 335.369 C 404.729 330.06 407.635 312.164 419.86 325.137 C 431.585 342.171 411.063 340.112 408.542 340.331 C 405.135 340.176 395.458 349.992 395.705 350.733 C 397.864 357.2 399.2 363.982 399.619 370.926 C 399.652 371.478 405.115 376.506 408.908 375.212 C 417.54 366.943 418.621 376.542 418.593 378.043 C 417.542 388.172 411.602 386.588 409.942 381.746 C 407.351 379.159 399.458 382.57 399.412 383.062 C 399.061 386.766 398.445 390.49 397.549 394.212 C 396.887 396.959 396.09 399.637 395.165 402.242 Z " id="g-cog" class="rotate" fill="rgb(84,118,140)" vector-effect="non-scaling-stroke" stroke-width="2" stroke="rgb(23,73,106)" stroke-linejoin="miter" stroke-linecap="square" stroke-miterlimit="3"/><path d=" M 374.461 151.793 C 373.831 151.857 370.447 146.038 370.618 141.069 C 371.693 139.955 375.165 129.068 366.759 130.263 C 357.974 130.705 365.416 141.33 366.983 142.338 C 368.625 144.223 366.947 153.095 366.126 153.314 C 360.833 154.722 355.858 156.918 351.338 159.771 C 350.973 160.001 347.608 158.792 345.951 156.356 C 346.627 152.606 349.263 147.06 340.248 151.552 C 339.54 152.057 329.206 158.709 343.397 159.056 C 345.109 159.418 346.467 163.236 346.341 163.337 C 342.227 166.643 338.608 170.541 335.616 174.903 C 335.467 175.121 330.101 173.553 326.908 171.004 C 323.716 162.838 320.685 162.391 317.625 168.097 C 316.014 171.103 316.072 177.426 324.572 174.233 C 328.774 174.209 333.115 178.917 333.031 179.067 C 330.894 182.887 329.21 186.995 328.052 191.318 C 328 191.512 324.535 192.005 323.734 191.132 C 320.857 187.751 318.555 189.206 318.192 192.111 C 317.704 196.015 319.115 195.257 322.811 193.814 C 323.793 193.679 327.254 194.643 327.183 195.035 C 326.626 198.101 326.24 201.819 326.228 205.043 C 326.222 206.705 326.292 208.35 326.434 209.975 C 326.473 210.411 323.132 212.009 318.706 212.458 C 314.676 210.984 306.608 202.596 307.349 215.868 C 307.362 223.386 313.313 222.782 318.853 216.374 C 321.072 215.777 325.009 214.827 327.222 215.566 C 328.354 221.368 330.421 226.838 333.261 231.812 C 331.306 233.074 331.164 234.405 328.665 234.825 C 322.782 234.801 323.016 235.695 325.558 239.056 C 328.718 243.235 328.857 241.972 330.413 238.129 C 332.825 236.031 333.488 236.442 335.53 235.443 C 338.845 240.305 342.937 244.597 347.628 248.138 C 347.896 248.341 346.599 252.787 342.515 255.172 C 339.925 254.697 330.161 255.971 337.408 262.619 C 342.947 267.555 345.231 263.811 345.062 257.172 C 348.845 253.652 351.31 250.686 351.598 250.866 C 356.281 253.783 361.446 256.001 366.945 257.37 C 366.579 260.38 368.155 260.755 366.337 263.177 C 359.752 267.137 376.481 269.39 370.066 263.512 C 369.696 260.62 370.549 260.644 372.759 258.479 C 375.049 258.786 377.384 258.948 379.755 258.957 C 382.848 258.968 385.881 258.717 388.834 258.225 C 389.731 258.075 392.548 264.713 392.67 269.79 C 391.712 273.453 388.535 278.961 396.288 278.143 C 404.218 276.864 399.728 273.01 397.06 269.563 C 395.88 266.816 395.147 260.738 396.841 256.243 C 400.866 254.909 404.682 253.111 408.224 250.912 C 411.009 251.193 412.319 250.703 412.838 254.005 C 411.49 261.314 413.622 261.928 417.847 258.949 C 422.479 255.683 423.705 253.01 416.366 252.68 C 414.02 252.207 415.197 250.551 414.946 245.98 C 418.59 242.847 421.81 239.233 424.507 235.238 C 425.714 235.064 429.268 237.52 432.292 239.265 C 433.833 244.217 439.399 246.028 443.009 242.98 C 445.58 238.639 440.607 235.095 433.891 235.783 C 429.882 234.076 427.171 230.857 427.376 230.473 C 429.065 227.309 430.446 223.956 431.479 220.455 C 431.581 220.112 435.925 218.527 437.429 220.158 C 438.137 222.834 441.555 222.256 441.357 218.642 C 441.214 216.046 440.58 214.956 437.259 216.865 C 434.793 218.324 432.822 214.79 432.888 214.407 C 433.372 211.598 433.602 209.084 433.658 206.339 C 433.664 206.037 441.631 202.913 443.165 203.354 C 444.797 203.824 456.593 211.824 455.125 200.536 C 453.285 186.385 444.831 198.955 444.033 198.843 C 441.574 199.783 433.407 199.881 433.355 199.394 C 432.695 193.304 431.015 187.517 428.489 182.207 C 428.399 182.018 431.709 179.102 433.785 179.023 C 436.544 179.633 440.286 179.659 436.458 174.724 C 432.6 169.751 432.133 172.136 431.814 175.327 C 430.593 177.734 426.591 178.581 426.466 178.365 C 423.126 172.599 418.745 167.51 413.579 163.355 C 413.351 163.172 415.793 159.063 419.875 157.235 C 423.612 157.13 435.884 158.101 429.3 147.945 C 419.957 137.463 418.004 151.331 417.453 152.958 C 417.005 155.231 408.97 160.029 408.521 159.746 C 404.604 157.279 400.346 155.304 395.834 153.907 C 395.476 153.796 393.041 149.382 394.506 147.089 C 401.353 142.73 395.196 140.469 394.202 140.245 C 387.351 139.304 387.438 143.477 390.364 145.353 C 391.651 147.48 388.128 152.135 387.796 152.086 C 385.297 151.72 382.741 151.526 380.142 151.516 C 378.224 151.509 376.328 151.603 374.461 151.793 Z " id="o-cog" class="rotateAC" fill="rgb(84,118,140)" vector-effect="non-scaling-stroke" stroke-width="2" stroke="rgb(23,73,106)" stroke-linejoin="miter" stroke-linecap="square" stroke-miterlimit="3"/><path d=" M 147.938 94.225 C 148.353 93.389 142.081 85.712 135.141 83.376 C 133.048 84.281 116.24 83.434 122.239 72.462 C 127.395 60.578 138.192 76.339 138.772 79.02 C 140.521 82.261 153.623 84.539 154.349 83.519 C 159.03 76.95 164.633 71.228 170.906 66.471 C 171.412 66.087 171.486 60.822 168.985 57.276 C 163.465 56.267 154.454 57.031 165.314 46.926 C 166.375 46.212 180.897 35.406 174.031 55.153 C 173.643 57.7 178.204 61.549 178.41 61.427 C 185.097 57.465 192.345 54.493 199.908 52.625 C 200.286 52.532 200.901 44.322 199.038 38.601 C 189.432 29.973 190.383 25.562 199.835 24.297 C 204.814 23.63 213.501 26.983 204.7 37.051 C 202.491 42.832 206.737 51.254 206.988 51.216 C 213.361 50.246 219.896 50.05 226.456 50.691 C 226.75 50.72 229.224 46.197 228.434 44.641 C 225.261 38.924 228.46 36.503 232.652 37.506 C 238.289 38.854 236.513 40.408 232.611 44.757 C 231.916 46.042 231.453 51.312 232.031 51.417 C 236.547 52.236 241.873 53.628 246.324 55.28 C 248.62 56.132 250.852 57.08 253.018 58.117 C 253.6 58.396 257.532 54.616 260.442 48.746 C 260.495 42.427 253.105 26.961 271.022 34.851 C 281.381 38.76 277.468 46.653 265.766 50.975 C 263.794 53.727 260.446 58.662 260.32 62.097 C 267.734 66.66 274.206 72.342 279.595 78.832 C 282.347 76.79 284.255 77.282 286.128 74.055 C 289.139 65.93 290.251 66.716 293.57 71.959 C 297.696 78.48 295.882 78.018 289.779 78.175 C 285.638 80.414 285.861 81.541 283.427 83.84 C 288.416 90.927 292.216 98.79 294.67 107.091 C 294.811 107.566 301.613 108.078 307.015 103.681 C 307.701 99.865 314.51 87.061 319.926 100.495 C 323.866 110.687 317.52 111.898 308.455 108.228 C 301.643 111.623 296.278 113.487 296.376 113.977 C 297.975 121.944 298.36 130.213 297.401 138.505 C 301.742 139.558 301.442 141.925 305.723 140.671 C 314.592 133.642 309.04 157.875 304.255 145.987 C 300.46 143.98 300.05 145.168 295.921 147.096 C 295.159 150.411 294.175 153.715 292.959 156.989 C 291.374 161.259 289.458 165.311 287.251 169.128 C 286.58 170.287 294.274 177.607 301.213 180.403 C 306.758 180.978 315.998 179.448 310.857 189.715 C 304.989 199.988 301.999 191.802 298.628 186.339 C 295.451 183.29 287.45 179.133 280.375 179.143 C 276.451 184.003 271.997 188.333 267.132 192.079 C 266.078 196.064 264.725 197.617 269.009 200.042 C 279.785 201.966 279.528 205.223 273.233 209.507 C 266.333 214.204 262.012 214.511 265.356 204.221 C 265.919 200.741 263.026 201.507 256.854 198.795 C 250.647 202.198 243.998 204.767 237.093 206.418 C 236.229 207.992 237.775 214.164 238.617 219.236 C 244.647 223.924 244.263 232.537 238.193 235.938 C 230.876 237.235 228.563 228.543 232.988 219.64 C 232.709 213.228 229.674 207.824 229.038 207.908 C 223.801 208.599 218.464 208.768 213.101 208.381 C 212.576 208.343 208.143 213.513 209.612 216.431 C 212.936 218.792 210.37 223.206 205.489 221.062 C 201.984 219.522 200.809 218.083 205.16 214.493 C 208.448 211.847 204.596 207.3 204.033 207.193 C 199.91 206.407 196.324 205.423 192.51 204.079 C 192.09 203.931 183.66 213.299 183.474 215.643 C 183.277 218.137 188.203 238.541 173.398 230.675 C 154.839 220.814 176.546 215.663 176.805 214.504 C 179.373 211.601 183.735 200.391 183.091 200.067 C 175.036 196.005 167.925 190.693 161.911 184.462 C 161.697 184.24 155.964 187.295 154.781 190.116 C 154.193 194.236 152.293 199.41 147.47 191.578 C 142.609 183.684 146.139 184.275 150.704 185.486 C 154.655 185.048 157.894 179.969 157.66 179.684 C 151.44 172.095 146.69 163.42 143.635 154.147 C 143.5 153.738 136.57 154.978 131.937 159.66 C 129.858 164.758 124.846 182.182 114.249 167.847 C 104.633 149.54 124.765 154.024 127.294 154.107 C 130.659 154.666 141.434 146.07 141.276 145.305 C 139.902 138.627 139.382 131.734 139.791 124.79 C 139.824 124.238 134.998 118.596 131.078 119.43 C 121.524 126.614 121.592 116.955 121.798 115.467 C 124.047 105.535 129.756 107.814 130.828 112.819 C 133.094 115.696 141.336 113.247 141.441 112.764 C 142.229 109.128 143.284 105.504 144.616 101.915 C 145.599 99.267 146.71 96.702 147.938 94.225 Z " id="c-cog" class="rotate" fill="rgb(84,118,140)" vector-effect="non-scaling-stroke" stroke-width="2" stroke="rgb(23,73,106)" stroke-linejoin="miter" stroke-linecap="square" stroke-miterlimit="3"/></g><g style="isolation:isolate" id="labels"/><circle vector-effect="non-scaling-stroke" cx="379.50000000000006" cy="206.5" r="28.5" id="Ellipse" fill="rgb(164,180,190)"/><path d=" M 146 129.5 C 146 89.486 178.486 57 218.5 57 C 232.686 57 245.926 61.083 257.108 68.138 C 267.549 74.725 276.196 83.903 282.142 94.767 C 287.789 105.083 212.085 62.534 214 129.5 C 215.915 196.466 290.128 142.411 288.493 148.454 C 286.271 156.668 282.64 164.306 277.875 171.092 C 273.692 177.05 268.635 182.351 262.891 186.808 C 250.621 196.329 235.218 202 218.5 202 C 178.486 202 146 169.514 146 129.5 Z " id="Path" fill="rgb(235,235,235)" fill-opacity="0.53"/><path d=" M 248.108 373.5 C 248.108 333.486 280.594 301 320.608 301 C 334.794 301 348.034 305.083 359.216 312.138 C 369.657 318.725 378.304 327.903 384.25 338.767 C 389.897 349.083 304.74 330.92 305 373.5 C 305.26 416.08 325.37 413.989 338 415.092 C 382.165 399.432 326.473 391.192 335 388 C 348.907 382.795 391.247 390.065 390.601 392.454 C 388.379 400.668 384.748 408.306 379.983 415.092 C 375.8 421.05 370.743 426.351 364.999 430.808 C 352.729 440.329 337.326 446 320.608 446 C 280.594 446 248.108 413.514 248.108 373.5 Z " id="Path" fill="rgb(164,180,190)"/><g style="isolation:isolate" id="tree" class="rotateTree"><g style="isolation:isolate" id="section"><path d=" M -162.046 319.301 C -126.619 293.732 -88.306 281.509 -44.202 281.509 C -0.503 281.509 37.578 293.517 72.565 318.516" id="Path" fill="none" vector-effect="non-scaling-stroke" stroke-width="4" stroke="rgb(23,73,106)" stroke-linejoin="miter" stroke-linecap="square" stroke-miterlimit="3"/><line x1="-44.614" y1="281.25" x2="-44.614" y2="484.188" id="Path" vector-effect="non-scaling-stroke" stroke-width="4" stroke="rgb(23,73,106)" stroke-linejoin="miter" stroke-linecap="square" stroke-miterlimit="3"/><g style="isolation:isolate" id="clade"><path d=" M -176.465 247.486 L -165.341 266.485 L -172.38 270.644 L -179.051 259.323" id="Path" fill="none" vector-effect="non-scaling-stroke" stroke-width="4" stroke="rgb(23,73,106)" stroke-linejoin="miter" stroke-linecap="square" stroke-miterlimit="3"/><path d=" M -169.11 268.712 L -162.4 280.069 L -175.651 287.897 L -183.123 275.325" id="Path" fill="none" vector-effect="non-scaling-stroke" stroke-width="4" stroke="rgb(23,73,106)" stroke-linejoin="miter" stroke-linecap="square" stroke-miterlimit="3"/><path d=" M -169.24 284.11 L -164.208 292.628 L -184.816 304.801 L -193.016 290.715" id="Path" fill="none" vector-effect="non-scaling-stroke" stroke-width="4" stroke="rgb(23,73,106)" stroke-linejoin="miter" stroke-linecap="square" stroke-miterlimit="3"/><line x1="-173.708" y1="299.443" x2="-163.336" y2="317.097" id="Path" vector-effect="non-scaling-stroke" stroke-width="4" stroke="rgb(23,73,106)" stroke-linejoin="miter" stroke-linecap="square" stroke-miterlimit="3"/></g><g style="isolation:isolate" id="clade"><path d=" M -68.798 213.734 L -68.77 235.751 L -60.595 235.772 L -60.574 222.632" id="Path" fill="none" vector-effect="non-scaling-stroke" stroke-width="4" stroke="rgb(23,73,106)" stroke-linejoin="miter" stroke-linecap="square" stroke-miterlimit="3"/><path d=" M -64.393 235.762 L -64.428 248.953 L -49.038 248.994 L -49.009 238.001" id="Path" fill="none" vector-effect="non-scaling-stroke" stroke-width="4" stroke="rgb(23,73,106)" stroke-linejoin="miter" stroke-linecap="square" stroke-miterlimit="3"/><path d=" M -56.484 248.974 L -56.511 258.868 L -32.576 258.931 L -32.546 247.938" id="Path" fill="none" vector-effect="non-scaling-stroke" stroke-width="4" stroke="rgb(23,73,106)" stroke-linejoin="miter" stroke-linecap="square" stroke-miterlimit="3"/><line x1="-44.868" y1="259.935" x2="-44.868" y2="281.281" id="Path" vector-effect="non-scaling-stroke" stroke-width="4" stroke="rgb(23,73,106)" stroke-linejoin="miter" stroke-linecap="square" stroke-miterlimit="3"/></g><g style="isolation:isolate" id="clade"><line x1="29.717" y1="250.57" x2="22.442" y2="291.814" id="Path" vector-effect="non-scaling-stroke" stroke-width="4" stroke="rgb(23,73,106)" stroke-linejoin="miter" stroke-linecap="square" stroke-miterlimit="3"/><path d=" M 15.246 217.97 L 12.047 236.394 L 27.208 239.038 L 29.097 228.209" id="Path" fill="none" vector-effect="non-scaling-stroke" stroke-width="4" stroke="rgb(23,73,106)" stroke-linejoin="miter" stroke-linecap="square" stroke-miterlimit="3"/><path d=" M 19.873 237.759 L 18.172 247.505 L 41.751 251.618 L 43.641 240.789" id="Path" fill="none" vector-effect="non-scaling-stroke" stroke-width="4" stroke="rgb(23,73,106)" stroke-linejoin="miter" stroke-linecap="square" stroke-miterlimit="3"/><path d=" M 28.278 263.517 L 51.857 267.63 L 54.321 253.339" id="Path" fill="none" vector-effect="non-scaling-stroke" stroke-width="4" stroke="rgb(23,73,106)" stroke-linejoin="miter" stroke-linecap="square" stroke-miterlimit="3"/></g><g style="isolation:isolate" id="clade"><path d=" M 93.281 251.595 L 86.125 262.676 L 99.054 271.025 L 106.255 259.863" id="Path" fill="none" vector-effect="non-scaling-stroke" stroke-width="4" stroke="rgb(23,73,106)" stroke-linejoin="miter" stroke-linecap="square" stroke-miterlimit="3"/><path d=" M 92.457 267.518 L 82.681 282.697 L 102.788 295.682 L 108.751 286.447" id="Path" fill="none" vector-effect="non-scaling-stroke" stroke-width="4" stroke="rgb(23,73,106)" stroke-linejoin="miter" stroke-linecap="square" stroke-miterlimit="3"/><line x1="91.902" y1="289.886" x2="73.009" y2="318.197" id="Path" vector-effect="non-scaling-stroke" stroke-width="4" stroke="rgb(23,73,106)" stroke-linejoin="miter" stroke-linecap="square" stroke-miterlimit="3"/></g><g style="isolation:isolate" id="clade"><path d=" M -103.357 219.464 L -100.136 232.256 L -115.06 236.014 L -118.298 223.131" id="Path" fill="none" vector-effect="non-scaling-stroke" stroke-width="4" stroke="rgb(23,73,106)" stroke-linejoin="miter" stroke-linecap="square" stroke-miterlimit="3"/><path d=" M -107.687 234.81 L -103.299 252.324 L -126.51 258.168 L -129.194 247.508" id="Path" fill="none" vector-effect="non-scaling-stroke" stroke-width="4" stroke="rgb(23,73,106)" stroke-linejoin="miter" stroke-linecap="square" stroke-miterlimit="3"/><line x1="-114.339" y1="256.172" x2="-106.173" y2="288.516" id="Path" vector-effect="non-scaling-stroke" stroke-width="4" stroke="rgb(23,73,106)" stroke-linejoin="miter" stroke-linecap="square" stroke-miterlimit="3"/></g></g><g style="isolation:isolate" id="section"><path d=" M -162.051 646.814 C -126.63 672.391 -88.32 684.622 -44.216 684.632 C -0.516 684.641 37.567 672.642 72.56 647.65" id="Path" fill="none" vector-effect="non-scaling-stroke" stroke-width="4" stroke="rgb(23,73,106)" stroke-linejoin="miter" stroke-linecap="square" stroke-miterlimit="3"/><line x1="-44.627" y1="684.891" x2="-44.583" y2="481.953" id="Path" vector-effect="non-scaling-stroke" stroke-width="4" stroke="rgb(23,73,106)" stroke-linejoin="miter" stroke-linecap="square" stroke-miterlimit="3"/><g style="isolation:isolate" id="clade"><path d=" M -176.486 718.626 L -165.358 699.629 L -172.396 695.469 L -179.069 706.789" id="Path" fill="none" vector-effect="non-scaling-stroke" stroke-width="4" stroke="rgb(23,73,106)" stroke-linejoin="miter" stroke-linecap="square" stroke-miterlimit="3"/><path d=" M -169.126 697.402 L -162.414 686.046 L -175.663 678.216 L -183.138 690.786" id="Path" fill="none" vector-effect="non-scaling-stroke" stroke-width="4" stroke="rgb(23,73,106)" stroke-linejoin="miter" stroke-linecap="square" stroke-miterlimit="3"/><path d=" M -169.253 682.004 L -164.219 673.487 L -184.825 661.309 L -193.028 675.394" id="Path" fill="none" vector-effect="non-scaling-stroke" stroke-width="4" stroke="rgb(23,73,106)" stroke-linejoin="miter" stroke-linecap="square" stroke-miterlimit="3"/><line x1="-173.717" y1="666.669" x2="-163.341" y2="649.017" id="Path" vector-effect="non-scaling-stroke" stroke-width="4" stroke="rgb(23,73,106)" stroke-linejoin="miter" stroke-linecap="square" stroke-miterlimit="3"/></g><g style="isolation:isolate" id="clade"><path d=" M -68.826 752.401 L -68.794 730.385 L -60.618 730.365 L -60.601 743.505" id="Path" fill="none" vector-effect="non-scaling-stroke" stroke-width="4" stroke="rgb(23,73,106)" stroke-linejoin="miter" stroke-linecap="square" stroke-miterlimit="3"/><path d=" M -64.417 730.374 L -64.449 717.183 L -49.059 717.145 L -49.032 728.138" id="Path" fill="none" vector-effect="non-scaling-stroke" stroke-width="4" stroke="rgb(23,73,106)" stroke-linejoin="miter" stroke-linecap="square" stroke-miterlimit="3"/><path d=" M -56.505 717.163 L -56.529 707.27 L -32.594 707.212 L -32.567 718.205" id="Path" fill="none" vector-effect="non-scaling-stroke" stroke-width="4" stroke="rgb(23,73,106)" stroke-linejoin="miter" stroke-linecap="square" stroke-miterlimit="3"/><line x1="-44.886" y1="706.205" x2="-44.881" y2="684.86" id="Path" vector-effect="non-scaling-stroke" stroke-width="4" stroke="rgb(23,73,106)" stroke-linejoin="miter" stroke-linecap="square" stroke-miterlimit="3"/></g><g style="isolation:isolate" id="clade"><line x1="29.697" y1="715.586" x2="22.431" y2="674.341" id="Path" vector-effect="non-scaling-stroke" stroke-width="4" stroke="rgb(23,73,106)" stroke-linejoin="miter" stroke-linecap="square" stroke-miterlimit="3"/><path d=" M 15.219 748.183 L 12.024 729.759 L 27.185 727.118 L 29.072 737.947" id="Path" fill="none" vector-effect="non-scaling-stroke" stroke-width="4" stroke="rgb(23,73,106)" stroke-linejoin="miter" stroke-linecap="square" stroke-miterlimit="3"/><path d=" M 19.85 728.396 L 18.152 718.649 L 41.731 714.541 L 43.618 725.37" id="Path" fill="none" vector-effect="non-scaling-stroke" stroke-width="4" stroke="rgb(23,73,106)" stroke-linejoin="miter" stroke-linecap="square" stroke-miterlimit="3"/><path d=" M 28.261 702.64 L 51.841 698.531 L 54.302 712.823" id="Path" fill="none" vector-effect="non-scaling-stroke" stroke-width="4" stroke="rgb(23,73,106)" stroke-linejoin="miter" stroke-linecap="square" stroke-miterlimit="3"/></g><g style="isolation:isolate" id="clade"><path d=" M 93.261 714.575 L 86.108 703.492 L 99.038 695.146 L 106.237 706.31" id="Path" fill="none" vector-effect="non-scaling-stroke" stroke-width="4" stroke="rgb(23,73,106)" stroke-linejoin="miter" stroke-linecap="square" stroke-miterlimit="3"/><path d=" M 92.44 698.652 L 82.667 683.471 L 102.777 670.491 L 108.739 679.727" id="Path" fill="none" vector-effect="non-scaling-stroke" stroke-width="4" stroke="rgb(23,73,106)" stroke-linejoin="miter" stroke-linecap="square" stroke-miterlimit="3"/><line x1="91.89" y1="676.284" x2="73.004" y2="647.969" id="Path" vector-effect="non-scaling-stroke" stroke-width="4" stroke="rgb(23,73,106)" stroke-linejoin="miter" stroke-linecap="square" stroke-miterlimit="3"/></g><g style="isolation:isolate" id="clade"><path d=" M -103.384 746.664 L -100.16 733.872 L -115.084 730.111 L -118.324 742.993" id="Path" fill="none" vector-effect="non-scaling-stroke" stroke-width="4" stroke="rgb(23,73,106)" stroke-linejoin="miter" stroke-linecap="square" stroke-miterlimit="3"/><path d=" M -107.71 731.317 L -103.319 713.804 L -126.528 707.955 L -129.215 718.614" id="Path" fill="none" vector-effect="non-scaling-stroke" stroke-width="4" stroke="rgb(23,73,106)" stroke-linejoin="miter" stroke-linecap="square" stroke-miterlimit="3"/><line x1="-114.358" y1="709.953" x2="-106.185" y2="677.611" id="Path" vector-effect="non-scaling-stroke" stroke-width="4" stroke="rgb(23,73,106)" stroke-linejoin="miter" stroke-linecap="square" stroke-miterlimit="3"/></g></g><g style="isolation:isolate" id="section"><path d=" M 119.44 365.358 C 145.01 400.785 157.233 439.098 157.233 483.202 C 157.233 526.901 145.225 564.982 120.226 599.969" id="Path" fill="none" vector-effect="non-scaling-stroke" stroke-width="4" stroke="rgb(23,73,106)" stroke-linejoin="miter" stroke-linecap="square" stroke-miterlimit="3"/><line x1="157.492" y1="482.79" x2="-45.446" y2="482.79" id="Path" vector-effect="non-scaling-stroke" stroke-width="4" stroke="rgb(23,73,106)" stroke-linejoin="miter" stroke-linecap="square" stroke-miterlimit="3"/><g style="isolation:isolate" id="clade"><path d=" M 191.256 350.939 L 172.256 362.063 L 168.098 355.024 L 179.419 348.353" id="Path" fill="none" vector-effect="non-scaling-stroke" stroke-width="4" stroke="rgb(23,73,106)" stroke-linejoin="miter" stroke-linecap="square" stroke-miterlimit="3"/><path d=" M 170.03 358.294 L 158.673 365.004 L 150.845 351.753 L 163.417 344.281" id="Path" fill="none" vector-effect="non-scaling-stroke" stroke-width="4" stroke="rgb(23,73,106)" stroke-linejoin="miter" stroke-linecap="square" stroke-miterlimit="3"/><path d=" M 154.632 358.164 L 146.114 363.196 L 133.94 342.588 L 148.027 334.388" id="Path" fill="none" vector-effect="non-scaling-stroke" stroke-width="4" stroke="rgb(23,73,106)" stroke-linejoin="miter" stroke-linecap="square" stroke-miterlimit="3"/><line x1="139.299" y1="353.696" x2="121.644" y2="364.068" id="Path" vector-effect="non-scaling-stroke" stroke-width="4" stroke="rgb(23,73,106)" stroke-linejoin="miter" stroke-linecap="square" stroke-miterlimit="3"/></g><g style="isolation:isolate" id="clade"><path d=" M 225.008 458.606 L 202.991 458.634 L 202.97 466.809 L 216.11 466.83" id="Path" fill="none" vector-effect="non-scaling-stroke" stroke-width="4" stroke="rgb(23,73,106)" stroke-linejoin="miter" stroke-linecap="square" stroke-miterlimit="3"/><path d=" M 202.98 463.011 L 189.788 462.976 L 189.748 478.366 L 200.74 478.395" id="Path" fill="none" vector-effect="non-scaling-stroke" stroke-width="4" stroke="rgb(23,73,106)" stroke-linejoin="miter" stroke-linecap="square" stroke-miterlimit="3"/><path d=" M 189.767 470.92 L 179.874 470.893 L 179.811 494.828 L 190.803 494.858" id="Path" fill="none" vector-effect="non-scaling-stroke" stroke-width="4" stroke="rgb(23,73,106)" stroke-linejoin="miter" stroke-linecap="square" stroke-miterlimit="3"/><line x1="178.807" y1="482.536" x2="157.461" y2="482.536" id="Path" vector-effect="non-scaling-stroke" stroke-width="4" stroke="rgb(23,73,106)" stroke-linejoin="miter" stroke-linecap="square" stroke-miterlimit="3"/></g><g style="isolation:isolate" id="clade"><line x1="188.172" y1="557.121" x2="146.928" y2="549.846" id="Path" vector-effect="non-scaling-stroke" stroke-width="4" stroke="rgb(23,73,106)" stroke-linejoin="miter" stroke-linecap="square" stroke-miterlimit="3"/><path d=" M 220.772 542.65 L 202.348 539.451 L 199.703 554.612 L 210.533 556.501" id="Path" fill="none" vector-effect="non-scaling-stroke" stroke-width="4" stroke="rgb(23,73,106)" stroke-linejoin="miter" stroke-linecap="square" stroke-miterlimit="3"/><path d=" M 200.983 547.277 L 191.237 545.576 L 187.123 569.155 L 197.953 571.045" id="Path" fill="none" vector-effect="non-scaling-stroke" stroke-width="4" stroke="rgb(23,73,106)" stroke-linejoin="miter" stroke-linecap="square" stroke-miterlimit="3"/><path d=" M 175.225 555.682 L 171.112 579.261 L 185.402 581.725" id="Path" fill="none" vector-effect="non-scaling-stroke" stroke-width="4" stroke="rgb(23,73,106)" stroke-linejoin="miter" stroke-linecap="square" stroke-miterlimit="3"/></g><g style="isolation:isolate" id="clade"><path d=" M 187.147 620.685 L 176.065 613.529 L 167.717 626.458 L 178.879 633.659" id="Path" fill="none" vector-effect="non-scaling-stroke" stroke-width="4" stroke="rgb(23,73,106)" stroke-linejoin="miter" stroke-linecap="square" stroke-miterlimit="3"/><path d=" M 171.223 619.861 L 156.044 610.085 L 143.06 630.192 L 152.295 636.155" id="Path" fill="none" vector-effect="non-scaling-stroke" stroke-width="4" stroke="rgb(23,73,106)" stroke-linejoin="miter" stroke-linecap="square" stroke-miterlimit="3"/><line x1="148.856" y1="619.306" x2="120.545" y2="600.413" id="Path" vector-effect="non-scaling-stroke" stroke-width="4" stroke="rgb(23,73,106)" stroke-linejoin="miter" stroke-linecap="square" stroke-miterlimit="3"/></g><g style="isolation:isolate" id="clade"><path d=" M 219.278 424.047 L 206.486 427.268 L 202.728 412.344 L 215.611 409.106" id="Path" fill="none" vector-effect="non-scaling-stroke" stroke-width="4" stroke="rgb(23,73,106)" stroke-linejoin="miter" stroke-linecap="square" stroke-miterlimit="3"/><path d=" M 203.932 419.717 L 186.418 424.105 L 180.574 400.894 L 191.234 398.21" id="Path" fill="none" vector-effect="non-scaling-stroke" stroke-width="4" stroke="rgb(23,73,106)" stroke-linejoin="miter" stroke-linecap="square" stroke-miterlimit="3"/><line x1="182.569" y1="413.065" x2="150.226" y2="421.231" id="Path" vector-effect="non-scaling-stroke" stroke-width="4" stroke="rgb(23,73,106)" stroke-linejoin="miter" stroke-linecap="square" stroke-miterlimit="3"/></g></g><g style="isolation:isolate" id="section"><path d=" M -209.202 365.358 C -234.771 400.785 -246.994 439.098 -246.994 483.202 C -246.994 526.901 -234.987 564.982 -209.987 599.969" id="Path" fill="none" vector-effect="non-scaling-stroke" stroke-width="4" stroke="rgb(23,73,106)" stroke-linejoin="miter" stroke-linecap="square" stroke-miterlimit="3"/><line x1="-247.254" y1="482.79" x2="-44.316" y2="482.79" id="Path" vector-effect="non-scaling-stroke" stroke-width="4" stroke="rgb(23,73,106)" stroke-linejoin="miter" stroke-linecap="square" stroke-miterlimit="3"/><g style="isolation:isolate" id="clade"><path d=" M -281.017 350.939 L -262.018 362.063 L -257.86 355.024 L -269.18 348.353" id="Path" fill="none" vector-effect="non-scaling-stroke" stroke-width="4" stroke="rgb(23,73,106)" stroke-linejoin="miter" stroke-linecap="square" stroke-miterlimit="3"/><path d=" M -259.792 358.294 L -248.434 365.004 L -240.607 351.753 L -253.178 344.281" id="Path" fill="none" vector-effect="non-scaling-stroke" stroke-width="4" stroke="rgb(23,73,106)" stroke-linejoin="miter" stroke-linecap="square" stroke-miterlimit="3"/><path d=" M -244.394 358.164 L -235.875 363.196 L -223.702 342.588 L -237.788 334.388" id="Path" fill="none" vector-effect="non-scaling-stroke" stroke-width="4" stroke="rgb(23,73,106)" stroke-linejoin="miter" stroke-linecap="square" stroke-miterlimit="3"/><line x1="-229.06" y1="353.696" x2="-211.406" y2="364.068" id="Path" vector-effect="non-scaling-stroke" stroke-width="4" stroke="rgb(23,73,106)" stroke-linejoin="miter" stroke-linecap="square" stroke-miterlimit="3"/></g><g style="isolation:isolate" id="clade"><path d=" M -314.769 458.606 L -292.753 458.634 L -292.731 466.809 L -305.871 466.83" id="Path" fill="none" vector-effect="non-scaling-stroke" stroke-width="4" stroke="rgb(23,73,106)" stroke-linejoin="miter" stroke-linecap="square" stroke-miterlimit="3"/><path d=" M -292.741 463.011 L -279.55 462.976 L -279.509 478.366 L -290.502 478.395" id="Path" fill="none" vector-effect="non-scaling-stroke" stroke-width="4" stroke="rgb(23,73,106)" stroke-linejoin="miter" stroke-linecap="square" stroke-miterlimit="3"/><path d=" M -279.529 470.92 L -269.635 470.893 L -269.572 494.828 L -280.565 494.858" id="Path" fill="none" vector-effect="non-scaling-stroke" stroke-width="4" stroke="rgb(23,73,106)" stroke-linejoin="miter" stroke-linecap="square" stroke-miterlimit="3"/><line x1="-268.568" y1="482.536" x2="-247.222" y2="482.536" id="Path" vector-effect="non-scaling-stroke" stroke-width="4" stroke="rgb(23,73,106)" stroke-linejoin="miter" stroke-linecap="square" stroke-miterlimit="3"/></g><g style="isolation:isolate" id="clade"><line x1="-277.933" y1="557.121" x2="-236.689" y2="549.846" id="Path" vector-effect="non-scaling-stroke" stroke-width="4" stroke="rgb(23,73,106)" stroke-linejoin="miter" stroke-linecap="square" stroke-miterlimit="3"/><path d=" M -310.533 542.65 L -292.11 539.451 L -289.465 554.612 L -300.294 556.501" id="Path" fill="none" vector-effect="non-scaling-stroke" stroke-width="4" stroke="rgb(23,73,106)" stroke-linejoin="miter" stroke-linecap="square" stroke-miterlimit="3"/><path d=" M -290.745 547.277 L -280.998 545.576 L -276.885 569.155 L -287.714 571.045" id="Path" fill="none" vector-effect="non-scaling-stroke" stroke-width="4" stroke="rgb(23,73,106)" stroke-linejoin="miter" stroke-linecap="square" stroke-miterlimit="3"/><path d=" M -264.987 555.682 L -260.873 579.261 L -275.164 581.725" id="Path" fill="none" vector-effect="non-scaling-stroke" stroke-width="4" stroke="rgb(23,73,106)" stroke-linejoin="miter" stroke-linecap="square" stroke-miterlimit="3"/></g><g style="isolation:isolate" id="clade"><path d=" M -276.908 620.685 L -265.827 613.529 L -257.478 626.458 L -268.641 633.659" id="Path" fill="none" vector-effect="non-scaling-stroke" stroke-width="4" stroke="rgb(23,73,106)" stroke-linejoin="miter" stroke-linecap="square" stroke-miterlimit="3"/><path d=" M -260.985 619.861 L -245.806 610.085 L -232.822 630.192 L -242.056 636.155" id="Path" fill="none" vector-effect="non-scaling-stroke" stroke-width="4" stroke="rgb(23,73,106)" stroke-linejoin="miter" stroke-linecap="square" stroke-miterlimit="3"/><line x1="-238.618" y1="619.306" x2="-210.307" y2="600.413" id="Path" vector-effect="non-scaling-stroke" stroke-width="4" stroke="rgb(23,73,106)" stroke-linejoin="miter" stroke-linecap="square" stroke-miterlimit="3"/></g><g style="isolation:isolate" id="clade"><path d=" M -309.039 424.047 L -296.247 427.268 L -292.489 412.344 L -305.372 409.106" id="Path" fill="none" vector-effect="non-scaling-stroke" stroke-width="4" stroke="rgb(23,73,106)" stroke-linejoin="miter" stroke-linecap="square" stroke-miterlimit="3"/><path d=" M -293.693 419.717 L -276.18 424.105 L -270.335 400.894 L -280.995 398.21" id="Path" fill="none" vector-effect="non-scaling-stroke" stroke-width="4" stroke="rgb(23,73,106)" stroke-linejoin="miter" stroke-linecap="square" stroke-miterlimit="3"/><line x1="-272.331" y1="413.065" x2="-239.987" y2="421.231" id="Path" vector-effect="non-scaling-stroke" stroke-width="4" stroke="rgb(23,73,106)" stroke-linejoin="miter" stroke-linecap="square" stroke-miterlimit="3"/></g></g></g></svg>