<svg xmlns="http://www.w3.org/2000/svg" preserveAspectRatio="xMinYMin" viewBox="0 0 500 500" width="500pt" height="500pt">

	<style>
        .rotate {
            transform-box: fill-box;
            transform-origin: center;
            animation: rotationClockwise 20s infinite linear;
        }

        .rotateAC {
            transform-box: fill-box;
            transform-origin: center;
            animation: rotationAnticlockwise 20s infinite linear;
        }

        .rotateTree {
            transform-box: fill-box;
            transform-origin: center;
            animation: rotationClockwise 200s infinite linear;
        }

        @keyframes rotationClockwise {
            from {
                transform: rotate(0deg);
            }
            to {
                transform: rotate(359deg);
            }
        }

        @keyframes rotationAnticlockwise {
            from {
                transform: rotate(0deg);
            }
            to {
                transform: rotate(-359deg);
            }
        }
	</style>

<g clip-path="url(#_clipPath_xRQTD28puCfzgp35eoJkyskNbSLNuMhQ)"><circle vector-effect="non-scaling-stroke" cx="247.23516288064997" cy="250.23516288064982" r="247.23516288064988" id="Ellipse" fill="rgb(0,91,150)"/><g style="isolation:isolate" id="cogs"><path d=" M 304.018 458.53 C 303.676 458.285 299.8 460.516 298.253 463.434 C 298.503 464.432 296.897 471.853 292.451 468.38 C 287.537 465.216 295.343 461.561 296.579 461.5 C 298.15 460.957 300.122 455.292 299.721 454.894 C 297.138 452.33 295.001 449.417 293.342 446.277 C 293.208 446.024 290.869 445.606 289.108 446.46 C 288.255 448.843 287.937 452.911 284.232 447.338 C 283.992 446.813 280.243 439.559 288.531 444.059 C 289.637 444.417 291.684 442.668 291.645 442.568 C 290.37 439.301 289.577 435.857 289.298 432.354 C 289.284 432.179 285.674 431.305 282.991 431.716 C 278.448 435.362 276.554 434.616 276.681 430.316 C 276.749 428.05 278.877 424.428 282.715 429.082 C 285.127 430.488 289.187 429.213 289.188 429.099 C 289.222 426.191 289.613 423.267 290.377 420.394 C 290.412 420.265 288.579 418.833 287.829 419.071 C 285.052 420.066 284.208 418.465 284.961 416.672 C 285.973 414.261 286.535 415.166 288.185 417.22 C 288.707 417.623 291.019 418.215 291.108 417.965 C 291.803 416.015 292.812 413.746 293.873 411.885 C 294.42 410.925 295.005 410.001 295.625 409.112 C 295.792 408.873 294.397 406.847 291.996 405.122 C 289.187 404.637 281.762 406.796 286.584 399.397 C 289.081 395.071 292.309 397.39 293.378 402.915 C 294.458 403.994 296.411 405.845 297.93 406.152 C 300.504 403.186 303.506 400.72 306.789 398.795 C 306.082 397.421 306.44 396.607 305.14 395.538 C 301.743 393.603 302.175 393.166 304.752 392.072 C 307.956 390.711 307.618 391.485 307.241 394.214 C 307.935 396.221 308.454 396.204 309.299 397.455 C 312.818 395.753 316.597 394.636 320.472 394.15 C 320.693 394.122 321.418 391.131 319.856 388.405 C 318.207 387.821 313.005 383.854 319.381 382.424 C 324.207 381.416 324.282 384.329 321.985 388.096 C 322.999 391.377 323.437 393.902 323.662 393.894 C 327.325 393.764 331.035 394.198 334.656 395.23 C 335.442 393.375 336.474 393.681 336.228 391.684 C 333.748 387.222 344.129 391.465 338.487 392.726 C 337.317 394.269 337.815 394.538 338.372 396.517 C 339.792 397.099 341.191 397.778 342.559 398.559 C 344.345 399.577 346.009 400.726 347.546 401.987 C 348.013 402.371 351.835 399.481 353.586 396.596 C 354.248 394.17 354.242 389.945 358.437 392.984 C 362.581 396.347 358.718 397.079 356.04 398.181 C 354.45 399.372 352.015 402.63 351.502 405.781 C 353.379 407.883 354.981 410.182 356.293 412.621 C 357.99 413.382 358.582 414.098 359.975 412.368 C 361.619 407.712 363.05 408.064 364.497 411.18 C 366.084 414.595 365.905 416.54 361.568 414.3 C 360.06 413.795 360.19 415.139 358.531 417.688 C 359.592 420.7 360.25 423.848 360.48 427.042 C 361.118 427.542 363.978 427.305 366.298 427.301 C 368.826 424.959 372.632 425.759 373.702 428.711 C 373.745 432.063 369.706 432.457 366.066 429.836 C 363.192 429.492 360.564 430.448 360.555 430.737 C 360.48 433.119 360.165 435.507 359.6 437.866 C 359.545 438.097 361.522 440.449 362.929 440.008 C 364.223 438.701 366 440.166 364.689 442.182 C 363.747 443.63 363.021 444.048 361.741 441.848 C 360.803 440.191 358.498 441.574 358.409 441.816 C 357.757 443.594 357.057 445.119 356.18 446.718 C 356.084 446.894 359.638 451.332 360.668 451.586 C 361.763 451.856 371.207 451.155 366.623 457.171 C 360.876 464.712 360.17 454.672 359.673 454.472 C 358.569 453.116 353.897 450.355 353.705 450.618 C 351.308 453.907 348.424 456.684 345.21 458.906 C 345.096 458.985 346.037 461.761 347.206 462.494 C 348.997 463.057 351.162 464.281 347.322 465.855 C 343.453 467.442 343.974 465.914 344.847 463.97 C 344.941 462.179 342.917 460.366 342.773 460.449 C 338.939 462.664 334.73 464.144 330.379 464.826 C 330.187 464.856 330.233 468.032 331.978 470.437 C 334.096 471.735 341.486 475.24 334.33 478.909 C 325.477 481.852 328.945 473.218 329.167 472.098 C 329.661 470.641 326.622 465.216 326.27 465.23 C 323.197 465.354 320.09 465.081 317.029 464.391 C 316.786 464.336 313.921 466.073 314.006 467.878 C 316.506 472.657 312.211 471.92 311.564 471.72 C 307.306 469.993 308.738 467.618 311.045 467.506 C 312.491 466.708 312.003 462.86 311.796 462.778 C 310.235 462.161 308.699 461.427 307.199 460.571 C 306.091 459.94 305.031 459.258 304.018 458.53 Z " id="uk-cog" class="rotateAC" fill="rgb(255,255,255)"/><path d=" M 256.127 334.189 C 255.891 333.269 263.752 326.945 271.154 326.08 C 273.047 327.422 289.962 330.116 286.299 317.929 C 283.666 305.009 269.597 318.43 268.456 320.978 C 266.031 323.836 252.506 323.347 251.997 322.179 C 248.72 314.652 244.345 307.775 239.101 301.718 C 238.677 301.229 239.712 295.97 242.949 292.966 C 248.657 293.123 257.469 295.782 248.784 283.433 C 247.877 282.499 235.693 268.682 238.372 289.79 C 238.222 292.407 232.87 295.28 232.691 295.115 C 226.867 289.762 220.275 285.278 213.137 281.826 C 212.781 281.653 213.896 273.348 216.956 268.043 C 228.338 261.475 228.319 256.883 219.174 253.633 C 214.356 251.921 205 253.431 211.645 265.309 C 212.627 271.53 206.626 279.022 206.385 278.931 C 200.242 276.624 193.776 275.053 187.11 274.31 C 186.811 274.277 185.3 269.253 186.414 267.87 C 190.777 262.845 188.102 259.762 183.716 259.877 C 177.819 260.033 179.261 261.954 182.231 267.105 C 182.651 268.531 182.003 273.876 181.406 273.859 C 176.736 273.725 171.141 273.989 166.36 274.697 C 163.895 275.063 161.473 275.536 159.097 276.113 C 158.459 276.268 155.34 271.677 153.678 265.219 C 154.955 258.916 165.57 245.071 146.069 249.156 C 134.93 250.867 137.166 259.55 147.907 266.318 C 149.292 269.473 151.587 275.092 150.989 278.538 C 142.646 281.522 135.006 285.816 128.274 291.144 C 125.963 288.532 123.959 288.62 122.774 285.012 C 121.486 276.288 120.213 276.836 115.805 281.359 C 110.323 286.983 112.227 286.905 118.271 288.346 C 121.923 291.447 121.464 292.523 123.404 295.324 C 116.944 301.33 111.505 308.36 107.313 316.109 C 107.073 316.552 100.193 315.63 95.739 310.115 C 95.859 306.17 91.775 291.988 83.553 304.224 C 77.485 313.544 83.549 316.085 93.348 314.339 C 99.416 319.154 104.366 322.14 104.165 322.606 C 100.895 330.203 98.772 338.356 97.981 346.814 C 93.437 346.948 93.237 349.368 89.238 347.219 C 81.887 338.353 82.314 363.65 89.581 352.821 C 93.783 351.622 93.94 352.891 97.645 355.679 C 97.706 359.141 97.991 362.638 98.512 366.154 C 99.192 370.74 100.246 375.178 101.641 379.443 C 102.064 380.739 92.862 386.408 85.365 387.731 C 79.722 387.136 70.844 383.667 73.802 394.973 C 77.481 406.437 82.182 398.915 86.689 394.186 C 90.494 391.818 99.336 389.363 106.379 390.862 C 109.263 396.528 112.786 401.777 116.842 406.531 C 117.052 410.721 118.073 412.552 113.296 414.065 C 102.162 413.712 101.732 417.01 107.098 422.601 C 112.98 428.73 117.217 429.945 116.054 418.995 C 116.226 415.412 118.945 416.784 125.662 415.383 C 131.126 420.077 137.206 424.036 143.734 427.133 C 144.263 428.883 141.424 434.702 139.518 439.576 C 132.527 442.974 131.095 451.631 136.424 456.295 C 143.437 459.128 147.57 450.959 145.038 441.163 C 146.666 434.837 150.825 430.095 151.441 430.313 C 156.51 432.103 161.789 433.395 167.21 434.139 C 167.741 434.212 171.067 440.292 168.989 442.889 C 165.183 444.54 166.809 449.475 172.12 448.368 C 175.934 447.572 177.408 446.387 173.831 441.896 C 171.114 438.57 175.907 434.853 176.489 434.865 C 180.761 434.95 184.538 434.726 188.618 434.19 C 189.068 434.131 195.491 445.234 195.182 447.607 C 194.853 450.132 185.653 469.412 202.05 464.696 C 222.606 458.784 202.076 449.085 202.062 447.877 C 200.116 444.446 198.133 432.365 198.842 432.178 C 207.719 429.829 215.917 426.037 223.217 421.098 C 223.477 420.922 228.542 425.171 229.127 428.229 C 228.845 432.456 229.648 438.007 236.099 431.224 C 242.601 424.387 238.962 424.233 234.16 424.477 C 230.319 423.21 228.163 417.47 228.456 417.236 C 236.247 410.989 242.804 403.35 247.798 394.76 C 248.018 394.382 254.657 397.075 258.284 402.712 C 259.281 408.226 260.604 426.631 274.173 414.588 C 287.603 398.384 266.613 398.61 264.077 398.161 C 260.609 398.009 251.69 387.181 252.007 386.453 C 254.782 380.093 256.751 373.338 257.805 366.338 C 257.889 365.782 263.882 361.18 267.609 362.835 C 275.61 372 277.575 362.367 277.684 360.843 C 277.536 350.48 271.371 351.547 269.25 356.305 C 266.389 358.692 258.697 354.519 258.694 354.016 C 258.675 350.23 258.387 346.399 257.816 342.545 C 257.395 339.701 256.829 336.913 256.127 334.189 Z " id="g-cog" class="rotate" fill="rgb(255,255,255)"/><path d=" M 295.577 250.409 C 295.117 250.653 295.459 256.176 297.844 259.496 C 299.087 259.768 306.43 265.628 300.136 268.647 C 293.927 272.354 294.167 261.692 294.778 260.288 C 295.041 258.249 289.844 252.947 289.183 253.173 C 284.921 254.626 280.517 255.394 276.124 255.507 C 275.769 255.516 274.02 257.879 273.999 260.301 C 276.172 262.557 280.505 265.146 272.291 266.189 C 271.577 266.167 261.474 266.334 271.02 259.62 C 272.025 258.591 271.211 255.36 271.079 255.349 C 266.757 254.966 262.503 253.952 258.466 252.334 C 258.264 252.254 255.31 255.775 254.291 258.975 C 255.835 266.016 253.966 267.705 249.27 265.2 C 246.795 263.88 243.95 259.529 251.22 257.833 C 254.104 255.932 254.923 250.731 254.797 250.667 C 251.593 249.03 248.566 246.989 245.801 244.562 C 245.677 244.453 243.083 245.697 242.934 246.66 C 242.509 250.285 240.271 250.34 238.697 248.52 C 236.581 246.072 237.893 245.947 241.078 245.247 C 241.811 244.891 243.738 242.652 243.511 242.417 C 241.73 240.574 239.77 238.208 238.29 236.009 C 237.527 234.874 236.824 233.718 236.18 232.542 C 236.007 232.226 232.993 232.658 229.762 234.371 C 227.679 237.218 225.99 246.636 220.439 237.223 C 217.017 232.076 221.362 229.773 228.075 231.626 C 229.865 231.021 232.991 229.875 234.167 228.359 C 232.293 223.875 231.21 219.191 230.882 214.493 C 228.969 214.522 228.265 213.677 226.364 214.53 C 222.352 217.232 222.104 216.514 222.308 213.055 C 222.562 208.755 223.233 209.556 226.051 211.473 C 228.658 211.807 228.924 211.223 230.776 210.975 C 230.824 206.137 231.663 201.334 233.255 196.772 C 233.346 196.511 230.429 194.062 226.548 194.295 C 224.994 195.802 217.736 199.387 219.657 191.533 C 221.192 185.63 224.463 187.148 227.377 191.765 C 231.571 192.446 234.61 193.348 234.725 193.094 C 236.596 188.962 239.116 185.088 242.252 181.642 C 240.627 179.751 241.534 178.775 239.185 177.949 C 232.875 178.246 243.286 169.07 241.582 176.017 C 242.649 178.164 243.222 177.759 245.721 178.23 C 247.147 176.975 248.669 175.798 250.287 174.71 C 252.397 173.291 254.586 172.078 256.829 171.068 C 257.511 170.76 256.408 164.935 254.174 161.408 C 251.848 159.34 247.161 157.024 252.836 154.044 C 258.843 151.3 257.531 155.984 257.28 159.559 C 257.726 161.976 259.999 166.467 263.209 168.768 C 266.571 167.843 270.001 167.331 273.427 167.218 C 275.203 165.755 276.322 165.492 275.17 162.997 C 270.912 158.614 272.09 157.222 276.339 157.33 C 280.998 157.45 283.056 158.718 278.188 162.293 C 276.799 163.687 278.36 164.282 280.274 167.523 C 284.196 168.002 288.047 169.004 291.715 170.505 C 292.62 170.073 293.93 166.772 295.201 164.198 C 293.994 160.109 296.974 156.329 300.834 156.766 C 304.574 158.561 302.79 163.255 297.884 165.849 C 295.921 168.846 295.536 172.285 295.852 172.454 C 298.451 173.847 300.925 175.509 303.23 177.432 C 303.456 177.62 307.15 176.721 307.435 174.919 C 306.697 172.766 309.298 171.602 310.812 174.164 C 311.899 176.004 311.963 177.039 308.821 177.249 C 306.469 177.377 306.734 180.693 306.954 180.925 C 308.567 182.624 309.872 184.239 311.163 186.09 C 311.305 186.294 318.179 184.794 319.026 183.792 C 319.928 182.726 324.343 171.872 328.491 180.261 C 333.691 190.778 322.173 186.04 321.678 186.481 C 319.568 186.961 313.939 190.621 314.125 190.978 C 316.453 195.444 317.946 200.168 318.642 204.952 C 318.667 205.123 322.261 205.605 323.716 204.712 C 325.325 203.036 327.872 201.31 327.507 206.432 C 327.138 211.594 325.731 210.175 324.055 208.139 C 322.122 207.05 318.999 208.297 319.012 208.503 C 319.36 213.97 318.686 219.45 317.05 224.648 C 316.978 224.877 320.523 226.573 324.149 225.96 C 326.752 224.327 334.701 218.062 334.834 228.012 C 333.229 239.443 325.564 230.852 324.445 229.99 C 323.101 228.641 315.416 229.027 315.239 229.425 C 313.686 232.9 311.676 236.194 309.228 239.208 C 309.033 239.447 309.383 243.577 311.431 244.476 C 318.103 244.333 314.925 248.689 314.347 249.296 C 310.092 253.066 308.246 250.173 309.391 247.554 C 309.301 245.513 304.767 243.937 304.562 244.122 C 303.02 245.513 301.361 246.813 299.588 248.005 C 298.28 248.885 296.941 249.686 295.577 250.409 Z " id="o-cog" class="rotateAC" fill="rgb(255,255,255)"/><path d=" M 163.117 53.308 C 162.426 53.442 158.103 47.34 157.798 41.824 C 158.876 40.484 161.635 28.093 152.453 30.252 C 142.776 31.615 152.069 42.63 153.902 43.59 C 155.907 45.513 154.933 55.496 154.046 55.82 C 148.329 57.904 143.043 60.829 138.325 64.435 C 137.944 64.726 134.101 63.723 132.025 61.192 C 132.399 56.976 134.765 50.578 125.237 56.445 C 124.504 57.073 113.731 65.462 129.468 64.435 C 131.398 64.664 133.281 68.754 133.151 68.879 C 128.927 72.945 125.311 77.619 122.434 82.743 C 122.291 82.999 116.198 81.798 112.411 79.294 C 108.067 70.577 104.669 70.383 101.851 77.001 C 100.366 80.488 101.061 87.478 110.148 83.1 C 114.795 82.655 120.066 87.433 119.988 87.607 C 118.003 92.047 116.549 96.76 115.697 101.658 C 115.659 101.877 111.874 102.768 110.901 101.881 C 107.381 98.426 104.979 100.266 104.866 103.516 C 104.715 107.885 106.201 106.905 110.146 104.941 C 111.22 104.695 115.145 105.416 115.106 105.857 C 114.795 109.306 114.737 113.457 115.045 117.026 C 115.204 118.866 115.444 120.679 115.763 122.462 C 115.849 122.942 112.312 125.042 107.459 125.979 C 102.854 124.749 93.092 116.27 95.231 130.881 C 95.994 139.199 102.518 137.938 108.011 130.298 C 110.408 129.416 114.668 127.973 117.191 128.571 C 119.02 134.878 121.852 140.724 125.489 145.946 C 123.452 147.537 123.427 149.023 120.704 149.737 C 114.191 150.295 114.54 151.261 117.686 154.727 C 121.598 159.037 121.627 157.625 122.966 153.219 C 125.426 150.658 126.201 151.046 128.361 149.738 C 132.512 154.788 137.467 159.13 143.009 162.582 C 143.326 162.779 142.333 167.828 138.051 170.873 C 135.139 170.606 124.462 172.986 133.142 179.621 C 139.762 184.532 141.917 180.161 141.069 172.833 C 144.905 168.561 147.338 165.035 147.674 165.205 C 153.146 167.967 159.081 169.907 165.302 170.875 C 165.196 174.242 166.978 174.5 165.207 177.361 C 158.315 182.398 177.049 183.227 169.366 177.361 C 168.669 174.198 169.615 174.139 171.846 171.524 C 174.41 171.636 177.009 171.583 179.634 171.357 C 183.057 171.061 186.389 170.482 189.607 169.643 C 190.585 169.389 194.362 176.453 195.002 182.059 C 194.306 186.207 191.339 192.618 199.836 190.941 C 208.484 188.737 203.132 184.92 199.837 181.372 C 198.258 178.449 196.842 171.797 198.269 166.654 C 202.591 164.778 206.634 162.408 210.334 159.623 C 213.444 159.657 214.844 158.985 215.748 162.587 C 214.983 170.808 217.403 171.275 221.782 167.559 C 226.582 163.484 227.673 160.405 219.519 160.77 C 216.876 160.48 218.014 158.531 217.282 153.498 C 221.002 149.669 224.205 145.35 226.792 140.661 C 228.11 140.349 232.287 142.712 235.806 144.342 C 238.004 149.668 244.344 151.119 248.035 147.387 C 250.448 142.328 244.592 138.901 237.23 140.33 C 232.624 138.84 229.304 135.549 229.493 135.103 C 231.047 131.434 232.241 127.587 233.037 123.61 C 233.115 123.221 237.764 121.035 239.591 122.69 C 240.64 125.58 244.364 124.601 243.785 120.621 C 243.37 117.764 242.559 116.62 239.075 119.063 C 236.491 120.923 233.959 117.209 233.994 116.778 C 234.25 113.622 234.255 110.817 234.043 107.775 C 234.02 107.439 242.525 103.19 244.266 103.526 C 246.119 103.884 259.966 111.562 257.219 99.218 C 253.775 83.744 245.671 98.493 244.777 98.448 C 242.151 99.733 233.124 100.653 233.017 100.12 C 231.681 93.447 229.247 87.211 225.923 81.587 C 225.805 81.386 229.177 77.831 231.466 77.537 C 234.58 77.937 238.724 77.594 233.997 72.515 C 229.233 67.395 228.954 70.081 228.918 73.644 C 227.807 76.428 223.463 77.764 223.303 77.537 C 219.034 71.489 213.68 66.294 207.551 62.21 C 207.281 62.031 209.574 57.241 213.908 54.812 C 218.032 54.324 231.708 54.178 223.413 43.595 C 212.033 32.927 211.25 48.465 210.803 50.321 C 210.534 52.88 202.12 58.988 201.595 58.72 C 197.016 56.38 192.108 54.618 186.977 53.521 C 186.569 53.434 183.436 48.792 184.829 46.11 C 191.971 40.605 184.934 38.716 183.811 38.566 C 176.138 38.207 176.648 42.816 180.073 44.601 C 181.709 46.825 178.274 52.327 177.902 52.306 C 175.099 52.149 172.252 52.188 169.376 52.437 C 167.252 52.62 165.165 52.912 163.117 53.308 Z " id="c-cog" class="rotate" fill="rgb(255,255,255)"/></g><g style="isolation:isolate" id="labels"><path d=" M 175.366 164.543 L 175.366 164.543 Q 159.997 164.543 147.572 157.863 L 147.572 157.863 L 147.572 157.863 Q 135.147 151.184 128.037 139.334 L 128.037 139.334 L 128.037 139.334 Q 120.927 127.484 120.927 112.545 L 120.927 112.545 L 120.927 112.545 Q 120.927 97.606 128.037 85.756 L 128.037 85.756 L 128.037 85.756 Q 135.147 73.906 147.572 67.226 L 147.572 67.226 L 147.572 67.226 Q 159.997 60.547 175.51 60.547 L 175.51 60.547 L 175.51 60.547 Q 188.581 60.547 199.139 65.144 L 199.139 65.144 L 199.139 65.144 Q 209.696 69.74 216.878 78.359 L 216.878 78.359 L 201.94 92.148 L 201.94 92.148 Q 191.741 80.369 176.659 80.369 L 176.659 80.369 L 176.659 80.369 Q 167.322 80.369 159.997 84.463 L 159.997 84.463 L 159.997 84.463 Q 152.671 88.557 148.577 95.883 L 148.577 95.883 L 148.577 95.883 Q 144.484 103.208 144.484 112.545 L 144.484 112.545 L 144.484 112.545 Q 144.484 121.882 148.577 129.207 L 148.577 129.207 L 148.577 129.207 Q 152.671 136.533 159.997 140.627 L 159.997 140.627 L 159.997 140.627 Q 167.322 144.72 176.659 144.72 L 176.659 144.72 L 176.659 144.72 Q 191.741 144.72 201.94 132.798 L 201.94 132.798 L 216.878 146.588 L 216.878 146.588 Q 209.696 155.35 199.067 159.946 L 199.067 159.946 L 199.067 159.946 Q 188.438 164.543 175.366 164.543 L 175.366 164.543 L 175.366 164.543 Z " id="Path" fill="rgb(0,91,150)"/><path d=" M 274.725 248.09 L 274.725 248.09 Q 263.833 248.09 255.09 243.394 L 255.09 243.394 L 255.09 243.394 Q 246.346 238.697 241.4 230.453 L 241.4 230.453 L 241.4 230.453 Q 236.454 222.21 236.454 211.917 L 236.454 211.917 L 236.454 211.917 Q 236.454 201.625 241.4 193.381 L 241.4 193.381 L 241.4 193.381 Q 246.346 185.137 255.09 180.44 L 255.09 180.44 L 255.09 180.44 Q 263.833 175.744 274.725 175.744 L 274.725 175.744 L 274.725 175.744 Q 285.617 175.744 294.311 180.44 L 294.311 180.44 L 294.311 180.44 Q 303.004 185.137 308.001 193.381 L 308.001 193.381 L 308.001 193.381 Q 312.997 201.625 312.997 211.917 L 312.997 211.917 L 312.997 211.917 Q 312.997 222.21 308.001 230.453 L 308.001 230.453 L 308.001 230.453 Q 303.004 238.697 294.311 243.394 L 294.311 243.394 L 294.311 243.394 Q 285.617 248.09 274.725 248.09 L 274.725 248.09 L 274.725 248.09 Z  M 274.725 234.301 L 274.725 234.301 Q 280.921 234.301 285.917 231.453 L 285.917 231.453 L 285.917 231.453 Q 290.913 228.605 293.761 223.509 L 293.761 223.509 L 293.761 223.509 Q 296.609 218.412 296.609 211.917 L 296.609 211.917 L 296.609 211.917 Q 296.609 205.422 293.761 200.326 L 293.761 200.326 L 293.761 200.326 Q 290.913 195.229 285.917 192.382 L 285.917 192.382 L 285.917 192.382 Q 280.921 189.534 274.725 189.534 L 274.725 189.534 L 274.725 189.534 Q 268.53 189.534 263.534 192.382 L 263.534 192.382 L 263.534 192.382 Q 258.537 195.229 255.689 200.326 L 255.689 200.326 L 255.689 200.326 Q 252.841 205.422 252.841 211.917 L 252.841 211.917 L 252.841 211.917 Q 252.841 218.412 255.689 223.509 L 255.689 223.509 L 255.689 223.509 Q 258.537 228.605 263.534 231.453 L 263.534 231.453 L 263.534 231.453 Q 268.53 234.301 274.725 234.301 L 274.725 234.301 L 274.725 234.301 Z " id="Compound Path" fill="rgb(0,91,150)"/><path d=" M 309.696 445.922 L 309.696 445.922 Q 303.762 445.922 300.459 442.638 L 300.459 442.638 L 300.459 442.638 Q 297.156 439.355 297.156 433.263 L 297.156 433.263 L 297.156 417.756 L 303.564 417.756 L 303.564 433.026 L 303.564 433.026 Q 303.564 440.463 309.735 440.463 L 309.735 440.463 L 309.735 440.463 Q 312.741 440.463 314.324 438.663 L 314.324 438.663 L 314.324 438.663 Q 315.906 436.863 315.906 433.026 L 315.906 433.026 L 315.906 417.756 L 322.235 417.756 L 322.235 433.263 L 322.235 433.263 Q 322.235 439.355 318.932 442.638 L 318.932 442.638 L 318.932 442.638 Q 315.629 445.922 309.696 445.922 L 309.696 445.922 L 309.696 445.922 Z  M 347.513 445.447 L 338.652 434.568 L 334.933 438.445 L 334.933 445.447 L 328.565 445.447 L 328.565 417.756 L 334.933 417.756 L 334.933 430.692 L 347.196 417.756 L 354.317 417.756 L 342.845 430.098 L 354.989 445.447 L 347.513 445.447 L 347.513 445.447 Z " id="Compound Path" fill="rgb(0,91,150)"/><path d=" M 204.746 390.857 L 204.746 352.338 L 232.555 352.338 L 232.555 405.701 L 232.555 405.701 Q 221.844 413.78 207.752 418.102 L 207.752 418.102 L 207.752 418.102 Q 193.66 422.424 179.379 422.424 L 179.379 422.424 L 179.379 422.424 Q 158.898 422.424 142.551 413.687 L 142.551 413.687 L 142.551 413.687 Q 126.204 404.949 116.903 389.448 L 116.903 389.448 L 116.903 389.448 Q 107.602 373.946 107.602 354.404 L 107.602 354.404 L 107.602 354.404 Q 107.602 334.863 116.903 319.361 L 116.903 319.361 L 116.903 319.361 Q 126.204 303.86 142.739 295.122 L 142.739 295.122 L 142.739 295.122 Q 159.274 286.385 179.943 286.385 L 179.943 286.385 L 179.943 286.385 Q 197.23 286.385 211.322 292.21 L 211.322 292.21 L 211.322 292.21 Q 225.414 298.035 234.997 309.121 L 234.997 309.121 L 215.456 327.159 L 215.456 327.159 Q 201.363 312.315 181.446 312.315 L 181.446 312.315 L 181.446 312.315 Q 168.857 312.315 159.086 317.576 L 159.086 317.576 L 159.086 317.576 Q 149.315 322.837 143.866 332.42 L 143.866 332.42 L 143.866 332.42 Q 138.417 342.003 138.417 354.404 L 138.417 354.404 L 138.417 354.404 Q 138.417 366.618 143.866 376.201 L 143.866 376.201 L 143.866 376.201 Q 149.315 385.784 158.992 391.139 L 158.992 391.139 L 158.992 391.139 Q 168.669 396.494 181.07 396.494 L 181.07 396.494 L 181.07 396.494 Q 194.223 396.494 204.746 390.857 L 204.746 390.857 L 204.746 390.857 Z " id="Path" fill="rgb(0,91,150)"/></g><g style="isolation:isolate" id="tree" class="rotateTree"><g style="isolation:isolate" id="section"><path d=" M 467.233 397.881 C 435.178 352.796 420.046 304.177 420.443 248.334 C 420.836 193.005 436.383 144.897 468.35 100.823" id="Path" fill="none" vector-effect="non-scaling-stroke" stroke-width="5" stroke="rgb(255,255,255)" stroke-linejoin="miter" stroke-linecap="square" stroke-miterlimit="3"/><line x1="420.111" y1="248.853" x2="677.06" y2="250.679" id="Path" vector-effect="non-scaling-stroke" stroke-width="5" stroke="rgb(255,255,255)" stroke-linejoin="miter" stroke-linecap="square" stroke-miterlimit="3"/><g style="isolation:isolate" id="clade"><path d=" M 376.175 415.492 L 400.331 401.578 L 405.532 410.528 L 391.139 418.873" id="Path" fill="none" vector-effect="non-scaling-stroke" stroke-width="5" stroke="rgb(255,255,255)" stroke-linejoin="miter" stroke-linecap="square" stroke-miterlimit="3"/><path d=" M 403.116 406.37 L 417.556 397.977 L 427.348 414.825 L 411.363 424.172" id="Path" fill="none" vector-effect="non-scaling-stroke" stroke-width="5" stroke="rgb(255,255,255)" stroke-linejoin="miter" stroke-linecap="square" stroke-miterlimit="3"/><path d=" M 422.611 406.674 L 433.441 400.379 L 448.669 426.582 L 430.76 436.837" id="Path" fill="none" vector-effect="non-scaling-stroke" stroke-width="5" stroke="rgb(255,255,255)" stroke-linejoin="miter" stroke-linecap="square" stroke-miterlimit="3"/><line x1="441.985" y1="412.469" x2="464.431" y2="399.495" id="Path" vector-effect="non-scaling-stroke" stroke-width="5" stroke="rgb(255,255,255)" stroke-linejoin="miter" stroke-linecap="square" stroke-miterlimit="3"/></g><g style="isolation:isolate" id="clade"><path d=" M 362.339 273.488 L 379.041 273.651 L 379.231 254.165 L 365.313 254.029" id="Path" fill="none" vector-effect="non-scaling-stroke" stroke-width="5" stroke="rgb(255,255,255)" stroke-linejoin="miter" stroke-linecap="square" stroke-miterlimit="3"/><path d=" M 379.139 263.593 L 391.666 263.715 L 391.961 233.41 L 378.043 233.274" id="Path" fill="none" vector-effect="non-scaling-stroke" stroke-width="5" stroke="rgb(255,255,255)" stroke-linejoin="miter" stroke-linecap="square" stroke-miterlimit="3"/><line x1="393.121" y1="248.983" x2="420.148" y2="249.175" id="Path" vector-effect="non-scaling-stroke" stroke-width="5" stroke="rgb(255,255,255)" stroke-linejoin="miter" stroke-linecap="square" stroke-miterlimit="3"/></g><g style="isolation:isolate" id="clade"><line x1="381.936" y1="154.464" x2="434.091" y2="164.046" id="Path" vector-effect="non-scaling-stroke" stroke-width="5" stroke="rgb(255,255,255)" stroke-linejoin="miter" stroke-linecap="square" stroke-miterlimit="3"/><path d=" M 398.315 156.402 L 403.735 126.585 L 385.663 123.336" id="Path" fill="none" vector-effect="non-scaling-stroke" stroke-width="5" stroke="rgb(255,255,255)" stroke-linejoin="miter" stroke-linecap="square" stroke-miterlimit="3"/></g><g style="isolation:isolate" id="clade"><path d=" M 383.805 73.991 L 397.771 83.151 L 408.458 66.857 L 394.39 57.639" id="Path" fill="none" vector-effect="non-scaling-stroke" stroke-width="5" stroke="rgb(255,255,255)" stroke-linejoin="miter" stroke-linecap="square" stroke-miterlimit="3"/><path d=" M 403.959 75.178 L 423.09 87.693 L 439.711 62.351 L 428.072 54.718" id="Path" fill="none" vector-effect="non-scaling-stroke" stroke-width="5" stroke="rgb(255,255,255)" stroke-linejoin="miter" stroke-linecap="square" stroke-miterlimit="3"/><line x1="432.274" y1="76.083" x2="467.95" y2="100.258" id="Path" vector-effect="non-scaling-stroke" stroke-width="5" stroke="rgb(255,255,255)" stroke-linejoin="miter" stroke-linecap="square" stroke-miterlimit="3"/></g><g style="isolation:isolate" id="clade"><path d=" M 341.353 322.675 L 357.579 318.712 L 362.203 337.642 L 345.862 341.625" id="Path" fill="none" vector-effect="non-scaling-stroke" stroke-width="5" stroke="rgb(255,255,255)" stroke-linejoin="miter" stroke-linecap="square" stroke-miterlimit="3"/><path d=" M 360.744 328.295 L 382.959 322.897 L 390.15 352.337 L 376.628 355.64" id="Path" fill="none" vector-effect="non-scaling-stroke" stroke-width="5" stroke="rgb(255,255,255)" stroke-linejoin="miter" stroke-linecap="square" stroke-miterlimit="3"/><line x1="387.732" y1="336.91" x2="428.758" y2="326.862" id="Path" vector-effect="non-scaling-stroke" stroke-width="5" stroke="rgb(255,255,255)" stroke-linejoin="miter" stroke-linecap="square" stroke-miterlimit="3"/></g></g><g style="isolation:isolate" id="section"><path d=" M 881.911 400.836 C 914.614 356.217 930.445 307.822 930.854 251.979 C 931.259 196.65 916.409 148.322 885.081 103.792" id="Path" fill="none" vector-effect="non-scaling-stroke" stroke-width="5" stroke="rgb(255,255,255)" stroke-linejoin="miter" stroke-linecap="square" stroke-miterlimit="3"/><line x1="931.179" y1="252.503" x2="674.23" y2="250.621" id="Path" vector-effect="non-scaling-stroke" stroke-width="5" stroke="rgb(255,255,255)" stroke-linejoin="miter" stroke-linecap="square" stroke-miterlimit="3"/><g style="isolation:isolate" id="clade"><path d=" M 972.706 419.758 L 948.753 405.498 L 943.423 414.372 L 957.695 422.923" id="Path" fill="none" vector-effect="non-scaling-stroke" stroke-width="5" stroke="rgb(255,255,255)" stroke-linejoin="miter" stroke-linecap="square" stroke-miterlimit="3"/><path d=" M 945.899 410.248 L 931.581 401.648 L 921.548 418.353 L 937.396 427.93" id="Path" fill="none" vector-effect="non-scaling-stroke" stroke-width="5" stroke="rgb(255,255,255)" stroke-linejoin="miter" stroke-linecap="square" stroke-miterlimit="3"/><path d=" M 926.402 410.271 L 915.663 403.821 L 900.059 429.801 L 917.818 440.314" id="Path" fill="none" vector-effect="non-scaling-stroke" stroke-width="5" stroke="rgb(255,255,255)" stroke-linejoin="miter" stroke-linecap="square" stroke-miterlimit="3"/><line x1="906.946" y1="415.786" x2="884.689" y2="402.489" id="Path" vector-effect="non-scaling-stroke" stroke-width="5" stroke="rgb(255,255,255)" stroke-linejoin="miter" stroke-linecap="square" stroke-miterlimit="3"/></g><g style="isolation:isolate" id="clade"><path d=" M 1016.439 283.749 L 988.563 283.51 L 988.611 273.159 L 1005.249 273.255" id="Path" fill="none" vector-effect="non-scaling-stroke" stroke-width="5" stroke="rgb(255,255,255)" stroke-linejoin="miter" stroke-linecap="square" stroke-miterlimit="3"/><path d=" M 988.589 277.969 L 971.887 277.89 L 971.978 258.404 L 985.896 258.469" id="Path" fill="none" vector-effect="non-scaling-stroke" stroke-width="5" stroke="rgb(255,255,255)" stroke-linejoin="miter" stroke-linecap="square" stroke-miterlimit="3"/><path d=" M 971.934 267.832 L 959.407 267.773 L 959.549 237.468 L 973.467 237.533" id="Path" fill="none" vector-effect="non-scaling-stroke" stroke-width="5" stroke="rgb(255,255,255)" stroke-linejoin="miter" stroke-linecap="square" stroke-miterlimit="3"/><line x1="958.164" y1="253.022" x2="931.137" y2="252.824" id="Path" vector-effect="non-scaling-stroke" stroke-width="5" stroke="rgb(255,255,255)" stroke-linejoin="miter" stroke-linecap="square" stroke-miterlimit="3"/></g><g style="isolation:isolate" id="clade"><line x1="970.713" y1="158.674" x2="918.425" y2="167.503" id="Path" vector-effect="non-scaling-stroke" stroke-width="5" stroke="rgb(255,255,255)" stroke-linejoin="miter" stroke-linecap="square" stroke-miterlimit="3"/><path d=" M 1011.855 177.299 L 988.498 181.178 L 985.29 161.958 L 999.019 159.667" id="Path" fill="none" vector-effect="non-scaling-stroke" stroke-width="5" stroke="rgb(255,255,255)" stroke-linejoin="miter" stroke-linecap="square" stroke-miterlimit="3"/><path d=" M 986.842 171.257 L 974.486 173.32 L 969.497 143.427 L 983.226 141.136" id="Path" fill="none" vector-effect="non-scaling-stroke" stroke-width="5" stroke="rgb(255,255,255)" stroke-linejoin="miter" stroke-linecap="square" stroke-miterlimit="3"/><path d=" M 954.307 160.376 L 949.318 130.483 L 967.435 127.496" id="Path" fill="none" vector-effect="non-scaling-stroke" stroke-width="5" stroke="rgb(255,255,255)" stroke-linejoin="miter" stroke-linecap="square" stroke-miterlimit="3"/></g><g style="isolation:isolate" id="clade"><path d=" M 970.005 78.183 L 955.907 87.141 L 945.457 70.694 L 959.657 61.68" id="Path" fill="none" vector-effect="non-scaling-stroke" stroke-width="5" stroke="rgb(255,255,255)" stroke-linejoin="miter" stroke-linecap="square" stroke-miterlimit="3"/><path d=" M 949.836 79.079 L 930.526 91.317 L 914.273 65.738 L 926.02 58.273" id="Path" fill="none" vector-effect="non-scaling-stroke" stroke-width="5" stroke="rgb(255,255,255)" stroke-linejoin="miter" stroke-linecap="square" stroke-miterlimit="3"/><line x1="921.51" y1="79.575" x2="885.489" y2="103.233" id="Path" vector-effect="non-scaling-stroke" stroke-width="5" stroke="rgb(255,255,255)" stroke-linejoin="miter" stroke-linecap="square" stroke-miterlimit="3"/></g><g style="isolation:isolate" id="clade"><path d=" M 1008.863 327.454 L 992.696 323.257 L 987.8 342.118 L 1004.082 346.337" id="Path" fill="none" vector-effect="non-scaling-stroke" stroke-width="5" stroke="rgb(255,255,255)" stroke-linejoin="miter" stroke-linecap="square" stroke-miterlimit="3"/><path d=" M 989.393 332.793 L 967.259 327.075 L 959.644 356.409 L 973.116 359.906" id="Path" fill="none" vector-effect="non-scaling-stroke" stroke-width="5" stroke="rgb(255,255,255)" stroke-linejoin="miter" stroke-linecap="square" stroke-miterlimit="3"/><line x1="962.284" y1="341.018" x2="921.407" y2="330.379" id="Path" vector-effect="non-scaling-stroke" stroke-width="5" stroke="rgb(255,255,255)" stroke-linejoin="miter" stroke-linecap="square" stroke-miterlimit="3"/></g></g><g style="isolation:isolate" id="section"><path d=" M 528.081 41.894 C 573.167 9.839 621.786 -5.293 677.628 -4.896 C 732.958 -4.503 781.066 11.043 825.139 43.011" id="Path" fill="none" vector-effect="non-scaling-stroke" stroke-width="5" stroke="rgb(255,255,255)" stroke-linejoin="miter" stroke-linecap="square" stroke-miterlimit="3"/><line x1="677.109" y1="-5.228" x2="675.283" y2="251.721" id="Path" vector-effect="non-scaling-stroke" stroke-width="5" stroke="rgb(255,255,255)" stroke-linejoin="miter" stroke-linecap="square" stroke-miterlimit="3"/><g style="isolation:isolate" id="clade"><path d=" M 510.471 -49.165 L 524.384 -25.008 L 515.434 -19.807 L 507.09 -34.201" id="Path" fill="none" vector-effect="non-scaling-stroke" stroke-width="5" stroke="rgb(255,255,255)" stroke-linejoin="miter" stroke-linecap="square" stroke-miterlimit="3"/><path d=" M 519.593 -22.224 L 527.985 -7.783 L 511.138 2.009 L 501.79 -13.976" id="Path" fill="none" vector-effect="non-scaling-stroke" stroke-width="5" stroke="rgb(255,255,255)" stroke-linejoin="miter" stroke-linecap="square" stroke-miterlimit="3"/><path d=" M 519.289 -2.729 L 525.583 8.102 L 499.381 23.33 L 489.125 5.42" id="Path" fill="none" vector-effect="non-scaling-stroke" stroke-width="5" stroke="rgb(255,255,255)" stroke-linejoin="miter" stroke-linecap="square" stroke-miterlimit="3"/><line x1="513.494" y1="16.646" x2="526.468" y2="39.092" id="Path" vector-effect="non-scaling-stroke" stroke-width="5" stroke="rgb(255,255,255)" stroke-linejoin="miter" stroke-linecap="square" stroke-miterlimit="3"/></g><g style="isolation:isolate" id="clade"><path d=" M 647.096 -90.93 L 646.933 -63.054 L 657.284 -62.953 L 657.428 -79.59" id="Path" fill="none" vector-effect="non-scaling-stroke" stroke-width="5" stroke="rgb(255,255,255)" stroke-linejoin="miter" stroke-linecap="square" stroke-miterlimit="3"/><path d=" M 652.475 -63 L 652.312 -46.298 L 671.797 -46.108 L 671.933 -60.026" id="Path" fill="none" vector-effect="non-scaling-stroke" stroke-width="5" stroke="rgb(255,255,255)" stroke-linejoin="miter" stroke-linecap="square" stroke-miterlimit="3"/><path d=" M 662.37 -46.2 L 662.248 -33.674 L 692.552 -33.378 L 692.688 -47.296" id="Path" fill="none" vector-effect="non-scaling-stroke" stroke-width="5" stroke="rgb(255,255,255)" stroke-linejoin="miter" stroke-linecap="square" stroke-miterlimit="3"/><line x1="676.98" y1="-32.218" x2="676.788" y2="-5.191" id="Path" vector-effect="non-scaling-stroke" stroke-width="5" stroke="rgb(255,255,255)" stroke-linejoin="miter" stroke-linecap="square" stroke-miterlimit="3"/></g><g style="isolation:isolate" id="clade"><line x1="771.499" y1="-43.404" x2="761.917" y2="8.751" id="Path" vector-effect="non-scaling-stroke" stroke-width="5" stroke="rgb(255,255,255)" stroke-linejoin="miter" stroke-linecap="square" stroke-miterlimit="3"/><path d=" M 753.47 -84.81 L 749.253 -61.513 L 768.426 -58.027 L 770.915 -71.722" id="Path" fill="none" vector-effect="non-scaling-stroke" stroke-width="5" stroke="rgb(255,255,255)" stroke-linejoin="miter" stroke-linecap="square" stroke-miterlimit="3"/><path d=" M 759.15 -59.714 L 756.909 -47.389 L 786.727 -41.968 L 789.216 -55.663" id="Path" fill="none" vector-effect="non-scaling-stroke" stroke-width="5" stroke="rgb(255,255,255)" stroke-linejoin="miter" stroke-linecap="square" stroke-miterlimit="3"/><path d=" M 769.561 -27.025 L 799.378 -21.604 L 802.627 -39.676" id="Path" fill="none" vector-effect="non-scaling-stroke" stroke-width="5" stroke="rgb(255,255,255)" stroke-linejoin="miter" stroke-linecap="square" stroke-miterlimit="3"/></g><g style="isolation:isolate" id="clade"><path d=" M 851.971 -41.534 L 842.811 -27.568 L 859.105 -16.881 L 868.323 -30.949" id="Path" fill="none" vector-effect="non-scaling-stroke" stroke-width="5" stroke="rgb(255,255,255)" stroke-linejoin="miter" stroke-linecap="square" stroke-miterlimit="3"/><path d=" M 850.784 -21.38 L 838.269 -2.249 L 863.611 14.371 L 871.245 2.733" id="Path" fill="none" vector-effect="non-scaling-stroke" stroke-width="5" stroke="rgb(255,255,255)" stroke-linejoin="miter" stroke-linecap="square" stroke-miterlimit="3"/><line x1="849.88" y1="6.935" x2="825.704" y2="42.611" id="Path" vector-effect="non-scaling-stroke" stroke-width="5" stroke="rgb(255,255,255)" stroke-linejoin="miter" stroke-linecap="square" stroke-miterlimit="3"/></g><g style="isolation:isolate" id="clade"><path d=" M 603.288 -83.986 L 607.251 -67.761 L 588.321 -63.137 L 584.337 -79.478" id="Path" fill="none" vector-effect="non-scaling-stroke" stroke-width="5" stroke="rgb(255,255,255)" stroke-linejoin="miter" stroke-linecap="square" stroke-miterlimit="3"/><path d=" M 597.668 -64.595 L 603.066 -42.381 L 573.625 -35.19 L 570.322 -48.711" id="Path" fill="none" vector-effect="non-scaling-stroke" stroke-width="5" stroke="rgb(255,255,255)" stroke-linejoin="miter" stroke-linecap="square" stroke-miterlimit="3"/><line x1="589.053" y1="-37.607" x2="599.101" y2="3.418" id="Path" vector-effect="non-scaling-stroke" stroke-width="5" stroke="rgb(255,255,255)" stroke-linejoin="miter" stroke-linecap="square" stroke-miterlimit="3"/></g></g><g style="isolation:isolate" id="section"><path d=" M 525.123 458.002 C 569.749 490.695 618.148 506.517 673.99 506.913 C 729.32 507.307 777.644 492.446 822.168 461.108" id="Path" fill="none" vector-effect="non-scaling-stroke" stroke-width="5" stroke="rgb(255,255,255)" stroke-linejoin="miter" stroke-linecap="square" stroke-miterlimit="3"/><line x1="673.467" y1="507.238" x2="675.293" y2="250.289" id="Path" vector-effect="non-scaling-stroke" stroke-width="5" stroke="rgb(255,255,255)" stroke-linejoin="miter" stroke-linecap="square" stroke-miterlimit="3"/><g style="isolation:isolate" id="clade"><path d=" M 506.22 548.801 L 520.476 524.845 L 511.601 519.517 L 503.053 533.791" id="Path" fill="none" vector-effect="non-scaling-stroke" stroke-width="5" stroke="rgb(255,255,255)" stroke-linejoin="miter" stroke-linecap="square" stroke-miterlimit="3"/><path d=" M 515.724 521.993 L 524.321 507.673 L 507.615 497.643 L 498.041 513.493" id="Path" fill="none" vector-effect="non-scaling-stroke" stroke-width="5" stroke="rgb(255,255,255)" stroke-linejoin="miter" stroke-linecap="square" stroke-miterlimit="3"/><path d=" M 515.698 502.495 L 522.146 491.755 L 496.162 476.156 L 485.653 493.918" id="Path" fill="none" vector-effect="non-scaling-stroke" stroke-width="5" stroke="rgb(255,255,255)" stroke-linejoin="miter" stroke-linecap="square" stroke-miterlimit="3"/><line x1="510.179" y1="483.041" x2="523.47" y2="460.781" id="Path" vector-effect="non-scaling-stroke" stroke-width="5" stroke="rgb(255,255,255)" stroke-linejoin="miter" stroke-linecap="square" stroke-miterlimit="3"/></g><g style="isolation:isolate" id="clade"><path d=" M 642.239 592.505 L 642.472 564.629 L 652.823 564.675 L 652.731 581.313" id="Path" fill="none" vector-effect="non-scaling-stroke" stroke-width="5" stroke="rgb(255,255,255)" stroke-linejoin="miter" stroke-linecap="square" stroke-miterlimit="3"/><path d=" M 648.013 564.654 L 648.088 547.951 L 667.574 548.038 L 667.512 561.957" id="Path" fill="none" vector-effect="non-scaling-stroke" stroke-width="5" stroke="rgb(255,255,255)" stroke-linejoin="miter" stroke-linecap="square" stroke-miterlimit="3"/><path d=" M 658.146 547.996 L 658.202 535.47 L 688.508 535.605 L 688.446 549.524" id="Path" fill="none" vector-effect="non-scaling-stroke" stroke-width="5" stroke="rgb(255,255,255)" stroke-linejoin="miter" stroke-linecap="square" stroke-miterlimit="3"/><line x1="672.953" y1="534.223" x2="673.146" y2="507.196" id="Path" vector-effect="non-scaling-stroke" stroke-width="5" stroke="rgb(255,255,255)" stroke-linejoin="miter" stroke-linecap="square" stroke-miterlimit="3"/></g><g style="isolation:isolate" id="clade"><line x1="767.304" y1="546.752" x2="758.464" y2="494.466" id="Path" vector-effect="non-scaling-stroke" stroke-width="5" stroke="rgb(255,255,255)" stroke-linejoin="miter" stroke-linecap="square" stroke-miterlimit="3"/><path d=" M 748.688 587.898 L 744.804 564.542 L 764.023 561.33 L 766.318 575.058" id="Path" fill="none" vector-effect="non-scaling-stroke" stroke-width="5" stroke="rgb(255,255,255)" stroke-linejoin="miter" stroke-linecap="square" stroke-miterlimit="3"/><path d=" M 754.724 562.884 L 752.659 550.529 L 782.551 545.533 L 784.845 559.261" id="Path" fill="none" vector-effect="non-scaling-stroke" stroke-width="5" stroke="rgb(255,255,255)" stroke-linejoin="miter" stroke-linecap="square" stroke-miterlimit="3"/><path d=" M 765.599 530.347 L 795.49 525.351 L 798.482 543.467" id="Path" fill="none" vector-effect="non-scaling-stroke" stroke-width="5" stroke="rgb(255,255,255)" stroke-linejoin="miter" stroke-linecap="square" stroke-miterlimit="3"/></g><g style="isolation:isolate" id="clade"><path d=" M 847.795 546.026 L 838.834 531.931 L 855.279 521.477 L 864.296 535.675" id="Path" fill="none" vector-effect="non-scaling-stroke" stroke-width="5" stroke="rgb(255,255,255)" stroke-linejoin="miter" stroke-linecap="square" stroke-miterlimit="3"/><path d=" M 846.894 525.857 L 834.653 506.551 L 860.228 490.292 L 867.696 502.038" id="Path" fill="none" vector-effect="non-scaling-stroke" stroke-width="5" stroke="rgb(255,255,255)" stroke-linejoin="miter" stroke-linecap="square" stroke-miterlimit="3"/><line x1="846.393" y1="497.532" x2="822.727" y2="461.516" id="Path" vector-effect="non-scaling-stroke" stroke-width="5" stroke="rgb(255,255,255)" stroke-linejoin="miter" stroke-linecap="square" stroke-miterlimit="3"/></g><g style="isolation:isolate" id="clade"><path d=" M 598.533 584.939 L 602.726 568.771 L 583.864 563.879 L 579.649 580.161" id="Path" fill="none" vector-effect="non-scaling-stroke" stroke-width="5" stroke="rgb(255,255,255)" stroke-linejoin="miter" stroke-linecap="square" stroke-miterlimit="3"/><path d=" M 593.189 565.47 L 598.902 543.334 L 569.567 535.725 L 566.072 549.198" id="Path" fill="none" vector-effect="non-scaling-stroke" stroke-width="5" stroke="rgb(255,255,255)" stroke-linejoin="miter" stroke-linecap="square" stroke-miterlimit="3"/><line x1="584.959" y1="538.362" x2="595.589" y2="497.484" id="Path" vector-effect="non-scaling-stroke" stroke-width="5" stroke="rgb(255,255,255)" stroke-linejoin="miter" stroke-linecap="square" stroke-miterlimit="3"/></g></g></g></g></svg>