<svg xmlns="http://www.w3.org/2000/svg" preserveAspectRatio="xMinYMin" viewBox="0 0 500 500" width="500pt" height="500pt">

	<style>
        .rotate {
            transform-box: fill-box;
            transform-origin: center;
            animation: rotationClockwise 20s infinite linear;
        }

        .rotateAC {
            transform-box: fill-box;
            transform-origin: center;
            animation: rotationAnticlockwise 20s infinite linear;
        }

        .rotateTree {
            transform-box: fill-box;
            transform-origin: center;
            animation: rotationAnticlockwise 40s infinite linear;
        }

        @keyframes rotationClockwise {
            from {
                transform: rotate(0deg);
            }
            to {
                transform: rotate(359deg);
            }
        }

        @keyframes rotationAnticlockwise {
            from {
                transform: rotate(0deg);
            }
            to {
                transform: rotate(-359deg);
            }
        }
	</style>

<circle vector-effect="non-scaling-stroke" cx="249.99999999999997" cy="249.99999999999991" r="249.99999999999994" id="Ellipse" fill="rgb(0,91,150)"/><g style="isolation:isolate" id="cogs"><path d=" M 375.71 428.893 C 376.064 429.028 376.314 433.052 374.888 435.667 C 374.014 435.975 369.232 440.872 374.054 442.488 C 378.877 444.61 377.744 436.924 377.176 435.963 C 376.802 434.513 380.082 430.213 380.581 430.316 C 383.793 430.984 387.046 431.143 390.232 430.829 C 390.49 430.804 391.966 432.354 392.2 434.104 C 390.832 435.93 387.931 438.192 393.964 438.207 C 394.478 438.127 401.798 437.339 394.292 433.343 C 393.473 432.69 393.77 430.281 393.865 430.261 C 396.956 429.596 399.94 428.48 402.713 426.947 C 402.851 426.871 405.304 429.151 406.329 431.373 C 405.846 436.602 407.348 437.655 410.519 435.421 C 412.189 434.244 413.854 430.843 408.446 430.271 C 406.19 429.156 405.13 425.469 405.215 425.412 C 407.385 423.94 409.389 422.192 411.17 420.189 C 411.25 420.099 413.237 420.765 413.432 421.448 C 414.064 424.03 415.688 423.869 416.662 422.411 C 417.972 420.451 417.012 420.479 414.646 420.259 C 414.084 420.067 412.489 418.623 412.633 418.432 C 413.754 416.939 414.959 415.053 415.831 413.329 C 416.28 412.441 416.684 411.541 417.044 410.633 C 417.141 410.389 419.359 410.431 421.849 411.378 C 423.611 413.249 425.679 419.907 428.846 412.602 C 430.857 408.573 427.508 407.299 422.822 409.242 C 421.473 408.966 419.11 408.418 418.124 407.428 C 419.075 404.018 419.437 400.534 419.252 397.108 C 420.637 396.957 421.07 396.283 422.521 396.728 C 425.665 398.321 425.779 397.779 425.321 395.297 C 424.751 392.211 424.337 392.851 422.472 394.49 C 420.618 394.966 420.373 394.568 419.011 394.555 C 418.542 391.062 417.503 387.665 415.942 384.51 C 415.853 384.329 417.741 382.297 420.568 382.116 C 421.827 383.065 427.397 385.005 425.301 379.499 C 423.661 375.369 421.432 376.761 419.741 380.361 C 416.77 381.231 414.654 382.157 414.548 381.983 C 412.824 379.164 410.654 376.59 408.077 374.381 C 409.081 372.867 408.338 372.243 409.961 371.435 C 414.55 371.082 406.198 365.384 408.055 370.254 C 407.477 371.902 407.026 371.66 405.261 372.226 C 404.118 371.447 402.911 370.733 401.644 370.092 C 399.991 369.256 398.299 368.576 396.586 368.047 C 396.066 367.886 396.339 363.576 397.637 360.824 C 399.133 359.12 402.313 357.024 397.942 355.381 C 393.353 353.936 394.722 357.205 395.226 359.767 C 395.12 361.555 393.881 365.006 391.767 366.958 C 389.253 366.592 386.728 366.53 384.241 366.757 C 382.825 365.859 381.992 365.77 382.601 363.862 C 385.285 360.31 384.308 359.41 381.246 359.87 C 377.889 360.375 376.515 361.478 380.356 363.624 C 381.485 364.507 380.41 365.078 379.318 367.593 C 376.525 368.292 373.831 369.363 371.314 370.778 C 370.622 370.547 369.378 368.278 368.227 366.532 C 368.732 363.467 366.237 361.003 363.486 361.665 C 360.944 363.3 362.656 366.533 366.436 367.967 C 368.124 369.957 368.712 372.408 368.499 372.559 C 366.746 373.8 365.106 375.224 363.613 376.821 C 363.466 376.978 360.715 376.66 360.347 375.383 C 360.686 373.76 358.701 373.152 357.837 375.141 C 357.217 376.569 357.263 377.323 359.554 377.192 C 361.266 377.073 361.373 379.494 361.235 379.682 C 360.222 381.056 359.423 382.34 358.657 383.795 C 358.572 383.955 353.468 383.489 352.765 382.841 C 352.017 382.151 347.849 374.701 345.604 381.139 C 342.791 389.21 350.692 384.749 351.089 385.023 C 352.658 385.18 357.057 387.32 356.954 387.595 C 355.673 391.033 355.019 394.583 354.946 398.104 C 354.943 398.229 352.388 398.902 351.256 398.387 C 349.942 397.32 347.945 396.301 348.67 399.971 C 349.401 403.67 350.291 402.518 351.319 400.895 C 352.618 399.934 354.988 400.555 354.997 400.704 C 355.238 404.688 356.218 408.589 357.868 412.201 C 357.941 412.36 355.53 413.904 352.854 413.787 C 350.825 412.841 344.515 409.026 345.314 416.232 C 347.502 424.352 352.271 417.451 353.003 416.728 C 353.853 415.631 359.443 415.219 359.608 415.491 C 361.043 417.863 362.792 420.064 364.833 422.023 C 364.995 422.179 365.114 425.196 363.714 426.03 C 358.878 426.526 361.567 429.39 362.04 429.777 C 365.455 432.119 366.529 429.862 365.466 428.072 C 365.347 426.588 368.483 425.041 368.648 425.156 C 369.888 426.023 371.204 426.813 372.593 427.516 C 373.619 428.035 374.659 428.493 375.71 428.893 Z " id="uk-cog" class="rotateAC" fill="rgb(255,255,255)"/><path d=" M 226.438 406.136 C 225.603 405.85 219.181 412.674 217.846 419.466 C 218.952 421.316 220.229 437.173 209.207 432.903 C 197.434 429.534 210.875 417.474 213.316 416.6 C 216.138 414.561 216.659 402.002 215.614 401.446 C 208.88 397.869 202.828 393.323 197.597 388.03 C 197.174 387.603 192.231 388.182 189.216 390.963 C 188.95 396.26 190.776 404.611 179.968 395.679 C 179.168 394.772 167.251 382.494 186.604 386.496 C 189.039 386.545 192.084 381.796 191.945 381.619 C 187.407 375.84 183.73 369.413 181.047 362.555 C 180.913 362.212 173.143 362.647 168.01 365.098 C 161.108 375.164 156.857 374.816 154.506 366.114 C 153.268 361.529 155.341 352.974 165.861 359.983 C 171.551 361.34 178.92 356.323 178.854 356.093 C 177.16 350.24 176.171 344.139 175.964 337.912 C 175.954 337.633 171.411 335.872 170.05 336.804 C 165.083 340.482 162.42 337.782 162.843 333.729 C 163.412 328.281 165.087 329.754 169.644 332.875 C 170.933 333.367 175.93 333.152 175.957 332.598 C 176.169 328.264 176.816 323.102 177.817 318.726 C 178.333 316.47 178.946 314.261 179.651 312.103 C 179.84 311.523 175.814 308.304 169.954 306.3 C 164.025 307.029 150.441 315.86 155.628 298.097 C 158.015 287.906 165.894 290.601 171.387 301.036 C 174.209 302.545 179.247 305.075 182.481 304.769 C 185.845 297.259 190.372 290.494 195.79 284.644 C 193.538 282.315 193.764 280.467 190.509 279.109 C 182.523 277.288 183.123 276.149 187.628 272.393 C 193.231 267.722 193.021 269.479 193.92 275.18 C 196.529 278.785 197.558 278.437 200.012 280.435 C 206.039 274.886 212.941 270.356 220.418 267.033 C 220.846 266.843 220.488 260.405 215.701 255.884 C 212.04 255.711 199.202 250.907 211.125 244.176 C 220.192 239.228 222.108 245.026 219.786 253.974 C 223.806 259.94 226.215 264.739 226.661 264.586 C 233.931 262.106 241.634 260.727 249.523 260.604 C 249.975 256.406 252.23 256.395 250.528 252.538 C 242.848 245.092 266.242 247.31 255.69 253.258 C 254.277 257.063 255.441 257.3 257.756 260.932 C 260.957 261.238 264.175 261.753 267.393 262.489 C 271.591 263.449 275.625 264.745 279.473 266.344 C 280.643 266.829 286.555 258.717 288.32 251.87 C 288.176 246.602 285.604 238.131 295.86 241.684 C 306.21 245.918 298.906 249.728 294.202 253.561 C 291.735 256.914 288.826 264.925 289.706 271.554 C 294.744 274.633 299.352 278.274 303.462 282.371 C 307.326 282.868 308.948 283.945 310.693 279.631 C 311.169 269.295 314.253 269.135 319.044 274.507 C 324.296 280.395 325.116 284.406 315.06 282.54 C 311.729 282.441 312.803 285.058 311.022 291.177 C 314.976 296.575 318.203 302.489 320.601 308.758 C 322.183 309.373 327.776 307.164 332.427 305.751 C 336.077 299.522 344.196 298.82 348.131 304.09 C 350.249 310.788 342.387 314.026 333.498 310.977 C 327.524 312.028 322.833 315.537 322.99 316.124 C 324.282 320.946 325.098 325.927 325.397 331.001 C 325.426 331.498 330.817 335.016 333.371 333.279 C 335.175 329.874 339.627 331.735 338.219 336.573 C 337.207 340.048 336.004 341.326 332.103 337.691 C 329.218 334.935 325.432 339.106 325.4 339.646 C 325.171 343.607 324.692 347.089 323.902 350.829 C 323.815 351.241 333.633 357.988 335.852 357.873 C 338.214 357.75 356.731 350.62 351.182 365.464 C 344.227 384.073 336.725 364.364 335.607 364.264 C 332.57 362.214 321.526 359.508 321.302 360.151 C 318.487 368.201 314.385 375.519 309.286 381.923 C 309.104 382.152 312.674 387.148 315.464 387.91 C 319.398 387.953 324.48 389.096 317.734 394.581 C 310.935 400.11 311.054 396.728 311.626 392.3 C 310.729 388.652 305.57 386.242 305.332 386.496 C 298.986 393.261 291.44 398.781 283.126 402.787 C 282.76 402.964 284.776 409.305 289.734 413.07 C 294.768 414.391 311.715 416.942 299.586 428.639 C 283.614 439.907 285.336 420.487 285.102 418.107 C 285.211 414.884 275.828 405.845 275.13 406.087 C 269.041 408.197 262.645 409.534 256.086 410.006 C 255.565 410.043 250.872 415.261 252.136 418.832 C 260.046 426.901 250.985 428.027 249.566 428.018 C 239.98 427.134 241.413 421.502 245.972 419.881 C 248.388 417.403 245.078 409.98 244.613 409.942 C 241.108 409.651 237.581 409.109 234.054 408.302 C 231.45 407.707 228.91 406.982 226.438 406.136 Z " id="g-cog" class="rotate" fill="rgb(255,255,255)"/><path d=" M 302.185 204.546 C 302.445 205.115 298.073 210.12 293.371 211.532 C 291.989 210.88 280.709 211.077 284.486 218.56 C 287.679 226.637 295.261 216.315 295.708 214.531 C 296.952 212.399 305.78 211.161 306.245 211.86 C 309.236 216.365 312.864 220.322 316.962 223.648 C 317.292 223.916 317.226 227.446 315.472 229.766 C 311.751 230.321 305.731 229.61 312.783 236.62 C 313.479 237.122 322.97 244.683 318.806 231.3 C 318.602 229.585 321.743 227.107 321.878 227.193 C 326.271 229.996 331.062 232.146 336.088 233.565 C 336.339 233.636 336.57 239.15 335.196 242.942 C 328.569 248.511 329.109 251.487 335.414 252.544 C 338.735 253.1 344.63 251.045 338.955 244.105 C 337.603 240.183 340.634 234.635 340.8 234.666 C 345.049 235.456 349.424 235.731 353.833 235.447 C 354.03 235.434 355.588 238.519 355.025 239.544 C 352.773 243.304 354.862 244.997 357.693 244.417 C 361.5 243.639 360.344 242.558 357.826 239.559 C 357.389 238.682 357.195 235.141 357.584 235.083 C 360.628 234.634 364.227 233.819 367.246 232.81 C 368.803 232.29 370.319 231.704 371.794 231.057 C 372.19 230.883 374.741 233.502 376.561 237.5 C 376.457 241.735 371.165 251.934 383.343 247.043 C 390.37 244.652 387.922 239.278 380.177 236.124 C 378.917 234.236 376.782 230.856 376.774 228.552 C 381.842 225.658 386.304 221.994 390.057 217.765 C 391.857 219.193 393.146 218.905 394.329 221.109 C 396.168 226.62 396.93 226.117 399.269 222.677 C 402.178 218.4 400.952 218.669 396.867 218.429 C 394.141 216.838 394.315 216.087 392.735 214.494 C 396.234 209.855 398.954 204.67 400.782 199.163 C 400.886 198.848 405.455 198.655 408.977 201.72 C 409.353 204.292 413.633 213.021 417.558 204.14 C 420.422 197.398 416.197 196.446 410.043 198.705 C 405.553 196.28 402 194.913 402.077 194.587 C 403.324 189.284 403.764 183.752 403.305 178.176 C 406.236 177.566 406.088 175.973 408.928 176.908 C 414.715 181.813 411.53 165.454 408.062 173.314 C 405.475 174.575 405.226 173.77 402.503 172.387 C 402.065 170.149 401.479 167.914 400.736 165.693 C 399.768 162.797 398.574 160.04 397.18 157.434 C 396.756 156.642 402.072 151.907 406.783 150.187 C 410.511 149.925 416.668 151.153 413.45 144.161 C 409.745 137.149 407.562 142.567 405.182 146.153 C 402.986 148.126 397.534 150.735 392.793 150.572 C 390.272 147.229 387.383 144.229 384.206 141.612 C 383.588 138.919 382.715 137.849 385.64 136.318 C 392.902 135.267 392.801 133.079 388.678 130.07 C 384.159 126.771 381.271 126.47 383.284 133.438 C 383.584 135.782 381.663 135.205 377.468 136.886 C 373.384 134.469 368.986 132.601 364.396 131.342 C 363.852 130.268 365.024 126.167 365.7 122.787 C 369.843 119.78 369.776 114 365.784 111.588 C 360.91 110.557 359.169 116.33 361.937 122.393 C 361.609 126.683 359.456 130.236 359.031 130.166 C 355.538 129.588 351.966 129.357 348.365 129.497 C 348.012 129.511 345.155 125.95 346.204 124.027 C 348.483 122.518 346.861 119.505 343.544 120.833 C 341.161 121.788 340.342 122.726 343.178 125.227 C 345.323 127.072 342.642 130.034 342.263 130.093 C 339.482 130.529 337.058 131.109 334.473 131.925 C 334.188 132.015 328.747 125.553 328.674 123.978 C 328.597 122.303 332.347 108.74 322.255 113.684 C 309.602 119.882 324.033 123.812 324.18 124.594 C 325.837 126.596 328.512 134.203 328.074 134.406 C 322.587 136.95 317.705 140.352 313.539 144.394 C 313.39 144.538 309.616 142.365 308.886 140.449 C 308.583 137.675 307.424 134.167 304.019 139.308 C 300.588 144.49 302.967 144.171 306.053 143.461 C 308.69 143.841 310.748 147.316 310.585 147.502 C 306.25 152.449 302.876 158.157 300.624 164.302 C 300.525 164.573 295.909 163.589 292.908 160.35 C 291.628 156.889 288.654 145.104 281.238 154.475 C 274.391 166.528 287.978 163.968 289.675 163.969 C 291.942 163.668 298.971 169.666 298.849 170.174 C 297.781 174.618 297.28 179.226 297.401 183.887 C 297.411 184.258 294.053 187.931 291.445 187.286 C 285.202 182.262 285.035 188.735 285.14 189.737 C 286.427 196.441 290.303 195.04 291.132 191.71 C 292.713 189.833 298.181 191.655 298.241 191.981 C 298.689 194.435 299.316 196.886 300.129 199.32 C 300.73 201.116 301.417 202.859 302.185 204.546 Z " id="o-cog" class="rotateAC" fill="rgb(255,255,255)"/><path d=" M 126.006 79.386 C 126.464 78.632 121.182 70.892 114.836 68.128 C 112.791 68.81 97.031 66.645 103.573 56.8 C 109.396 46.027 118.282 61.749 118.61 64.321 C 119.994 67.515 132.147 70.726 132.914 69.825 C 137.856 64.018 143.599 59.086 149.893 55.116 C 150.401 54.796 150.899 49.843 148.832 46.301 C 143.716 44.901 135.167 44.888 146.216 36.255 C 147.274 35.668 161.828 26.673 153.756 44.711 C 153.184 47.078 157.167 51.074 157.37 50.976 C 163.99 47.788 171.057 45.579 178.332 44.436 C 178.695 44.378 179.943 36.697 178.654 31.157 C 170.308 22.25 171.563 18.174 180.567 17.751 C 185.31 17.528 193.219 21.393 184.111 30.158 C 181.561 35.423 184.875 43.699 185.114 43.684 C 191.195 43.289 197.366 43.636 203.491 44.773 C 203.766 44.824 206.464 40.766 205.846 39.236 C 203.323 33.594 206.532 31.575 210.399 32.86 C 215.598 34.588 213.798 35.907 209.77 39.685 C 209.012 40.838 208.147 45.764 208.683 45.91 C 212.869 47.049 217.771 48.792 221.829 50.711 C 223.922 51.7 225.947 52.774 227.903 53.927 C 228.428 54.236 232.438 50.997 235.656 45.705 C 236.22 39.759 230.519 24.592 246.75 33.48 C 256.188 38.004 251.861 45.119 240.489 48.238 C 238.408 50.669 234.853 55.044 234.456 58.269 C 241.066 63.169 246.699 69.046 251.247 75.596 C 254.005 73.898 255.761 74.516 257.788 71.629 C 261.285 64.222 262.268 65.053 264.967 70.261 C 268.323 76.737 266.652 76.155 260.891 75.806 C 256.809 77.578 256.927 78.658 254.448 80.624 C 258.57 87.704 261.509 95.419 263.146 103.436 C 263.239 103.895 269.604 104.93 275.049 101.229 C 276.006 97.69 283.459 86.186 287.467 99.279 C 290.349 109.197 284.274 109.822 276.035 105.628 C 269.344 108.271 264.14 109.591 264.192 110.06 C 265.051 117.693 264.74 125.512 263.163 133.243 C 267.165 134.587 266.69 136.792 270.824 135.96 C 279.748 130.061 272.548 152.431 269.009 140.846 C 265.598 138.648 265.116 139.733 261.071 141.213 C 260.083 144.273 258.887 147.304 257.476 150.289 C 255.636 154.181 253.502 157.842 251.113 161.256 C 250.387 162.294 257.038 169.814 263.345 173.011 C 268.521 174.003 277.346 173.314 271.67 182.565 C 265.309 191.762 263.159 183.809 260.428 178.391 C 257.684 175.261 250.487 170.695 243.823 170.129 C 239.733 174.387 235.186 178.103 230.3 181.235 C 228.983 184.902 227.582 186.254 231.42 188.887 C 241.411 191.575 240.904 194.621 234.628 198.144 C 227.747 202.006 223.654 201.944 227.639 192.525 C 228.453 189.294 225.666 189.78 220.074 186.724 C 213.952 189.424 207.481 191.303 200.844 192.296 C 199.902 193.708 200.856 199.646 201.236 204.491 C 206.534 209.396 205.472 217.477 199.478 220.185 C 192.482 220.812 191.011 212.438 195.902 204.413 C 196.161 198.353 193.743 193.017 193.136 193.044 C 188.149 193.268 183.109 192.994 178.09 192.193 C 177.598 192.115 173.002 196.623 174.149 199.491 C 177.087 201.985 174.312 205.932 169.889 203.516 C 166.714 201.781 165.724 200.33 170.114 197.303 C 173.425 195.079 170.167 190.484 169.646 190.337 C 165.827 189.261 162.53 188.043 159.048 186.467 C 158.664 186.294 149.962 194.431 149.597 196.623 C 149.209 198.955 152.188 218.572 138.885 209.96 C 122.209 199.163 143.071 196.078 143.409 195.008 C 146.064 192.483 151.083 182.28 150.504 181.922 C 143.247 177.442 136.983 171.861 131.826 165.504 C 131.642 165.277 125.995 167.688 124.651 170.249 C 123.762 174.081 121.552 178.799 117.647 171.03 C 113.711 163.201 116.987 164.045 121.189 165.556 C 124.945 165.466 128.408 160.946 128.211 160.659 C 122.97 153.005 119.202 144.449 117.079 135.468 C 116.986 135.072 110.359 135.676 105.615 139.708 C 103.242 144.34 97.105 160.342 88.291 145.98 C 80.724 127.957 99.319 133.817 101.693 134.101 C 104.817 134.901 115.663 127.682 115.577 126.949 C 114.826 120.548 114.897 114.014 115.848 107.508 C 115.923 106.991 111.837 101.285 108.078 101.751 C 98.496 107.74 99.346 98.649 99.66 97.265 C 102.586 88.094 107.777 90.704 108.38 95.506 C 110.28 98.399 118.241 96.763 118.379 96.317 C 119.417 92.957 120.705 89.629 122.252 86.358 C 123.393 83.944 124.647 81.618 126.006 79.386 Z " id="c-cog" class="rotate" fill="rgb(255,255,255)"/></g><g style="isolation:isolate" id="labels"><path d=" M 373.382 412.878 L 373.382 412.878 L 373.382 412.878 Q 361.09 412.878 361.09 402.426 L 361.09 402.426 L 361.09 387.583 L 370.846 387.583 L 370.846 402.148 L 370.846 402.148 Q 370.846 404.343 372.315 405.008 L 372.315 405.008 L 372.315 405.008 Q 372.825 405.24 373.537 405.24 L 373.537 405.24 L 373.537 405.24 Q 375.547 405.24 376.072 403.323 L 376.072 403.323 L 376.072 403.323 Q 376.227 402.751 376.227 402.086 L 376.227 402.086 L 376.227 387.583 L 384.777 387.583 L 384.777 402.426 L 384.777 402.426 Q 384.777 412.878 373.382 412.878 Z  M 388.333 387.583 L 398.12 387.583 L 398.12 395.175 L 404.072 387.583 L 414.107 387.583 L 406.129 397.989 L 415.343 412.275 L 404.072 412.275 L 398.908 403.539 L 398.336 404.544 L 398.336 412.275 L 388.333 412.275 L 388.333 387.583 Z " id="uk" fill="rgb(0,91,150)"/><path d=" M 185.368 337.943 C 182.835 302.944 211.526 271.072 249.282 269.802 C 262.783 269.347 279.219 274.738 288.076 281.32 C 297.281 287.128 306.964 297.796 306.314 307.324 C 305.664 316.851 222.686 264.387 229.718 337.943 C 229.718 372.416 242.08 375.012 256.506 375.611 C 303.727 373.247 273.308 359.319 264.287 352.351 C 284.294 341.899 312.84 345.44 312.073 354.271 C 314.161 361.475 300.084 380.531 289.036 388.465 C 277.989 396.398 264.02 401.857 249.282 401.857 C 214.007 401.857 187.915 373.126 185.368 337.943 Z " id="g" fill="rgb(0,91,150)"/><path d=" M 316.576 148.93 C 333.77 130.605 362.607 129.686 380.932 146.88 C 399.258 164.073 400.177 192.91 382.983 211.236 C 365.789 229.562 336.952 230.481 318.627 213.287 C 300.301 196.093 299.382 167.256 316.576 148.93 Z " id="o" fill="rgb(0,91,150)"/><path d=" M 332.367 163.746 C 341.383 154.135 356.506 153.654 366.117 162.67 C 375.727 171.687 376.209 186.81 367.192 196.421 C 358.175 206.031 343.053 206.513 333.442 197.496 C 323.832 188.479 323.35 173.356 332.367 163.746 Z " id="o" fill="rgb(255,255,255)"/><path d=" M 122.643 123.842 C 120.11 88.842 148.802 56.971 186.557 55.7 C 200.059 55.246 216.494 60.636 225.352 67.218 C 234.557 73.026 244.239 83.694 243.59 93.222 C 242.94 102.749 165.305 64.807 166.993 123.842 C 168.681 182.877 250.79 134.842 249.349 140.169 C 251.436 147.373 237.359 166.429 226.312 174.363 C 215.264 182.297 201.295 187.756 186.557 187.756 C 151.282 187.756 125.19 159.025 122.643 123.842 Z " id="c" fill="rgb(0,91,150)"/></g><g style="isolation:isolate" id="tree" class="rotateTree"><g style="isolation:isolate" id="section"><path d=" M 32.225 444.396 C 57.68 407.579 69.405 368.082 68.49 322.907 C 67.583 278.147 54.494 239.391 28.162 204.073" id="Path" fill="none" vector-effect="non-scaling-stroke" stroke-width="4" stroke="rgb(255,255,255)" stroke-linejoin="miter" stroke-linecap="square" stroke-miterlimit="3"/><line x1="68.764" y1="323.323" x2="-139.101" y2="327.533" id="Path" vector-effect="non-scaling-stroke" stroke-width="4" stroke="rgb(255,255,255)" stroke-linejoin="miter" stroke-linecap="square" stroke-miterlimit="3"/><g style="isolation:isolate" id="clade"><path d=" M 106.083 457.675 L 86.391 446.676 L 82.278 453.972 L 94.012 460.57" id="Path" fill="none" vector-effect="non-scaling-stroke" stroke-width="4" stroke="rgb(255,255,255)" stroke-linejoin="miter" stroke-linecap="square" stroke-miterlimit="3"/><path d=" M 84.189 450.582 L 72.417 443.945 L 64.674 457.68 L 77.706 465.072" id="Path" fill="none" vector-effect="non-scaling-stroke" stroke-width="4" stroke="rgb(255,255,255)" stroke-linejoin="miter" stroke-linecap="square" stroke-miterlimit="3"/><path d=" M 68.42 451.035 L 59.591 446.057 L 47.549 467.418 L 62.148 475.525" id="Path" fill="none" vector-effect="non-scaling-stroke" stroke-width="4" stroke="rgb(255,255,255)" stroke-linejoin="miter" stroke-linecap="square" stroke-miterlimit="3"/><line x1="52.807" y1="455.929" x2="34.509" y2="445.671" id="Path" vector-effect="non-scaling-stroke" stroke-width="4" stroke="rgb(255,255,255)" stroke-linejoin="miter" stroke-linecap="square" stroke-miterlimit="3"/></g><g style="isolation:isolate" id="clade"><path d=" M 138.42 346.694 L 115.869 347.123 L 115.677 338.749 L 129.136 338.456" id="Path" fill="none" vector-effect="non-scaling-stroke" stroke-width="4" stroke="rgb(255,255,255)" stroke-linejoin="miter" stroke-linecap="square" stroke-miterlimit="3"/><path d=" M 115.766 342.64 L 102.255 342.949 L 101.894 327.187 L 113.153 326.929" id="Path" fill="none" vector-effect="non-scaling-stroke" stroke-width="4" stroke="rgb(255,255,255)" stroke-linejoin="miter" stroke-linecap="square" stroke-miterlimit="3"/><path d=" M 102.069 334.813 L 91.936 335.045 L 91.375 310.53 L 102.634 310.272" id="Path" fill="none" vector-effect="non-scaling-stroke" stroke-width="4" stroke="rgb(255,255,255)" stroke-linejoin="miter" stroke-linecap="square" stroke-miterlimit="3"/><line x1="90.601" y1="323.141" x2="68.737" y2="323.584" id="Path" vector-effect="non-scaling-stroke" stroke-width="4" stroke="rgb(255,255,255)" stroke-linejoin="miter" stroke-linecap="square" stroke-miterlimit="3"/></g><g style="isolation:isolate" id="clade"><line x1="98.646" y1="246.552" x2="56.552" y2="254.859" id="Path" vector-effect="non-scaling-stroke" stroke-width="4" stroke="rgb(255,255,255)" stroke-linejoin="miter" stroke-linecap="square" stroke-miterlimit="3"/><path d=" M 132.338 260.698 L 113.534 264.357 L 110.51 248.883 L 121.563 246.723" id="Path" fill="none" vector-effect="non-scaling-stroke" stroke-width="4" stroke="rgb(255,255,255)" stroke-linejoin="miter" stroke-linecap="square" stroke-miterlimit="3"/><path d=" M 111.973 256.369 L 102.025 258.313 L 97.323 234.247 L 108.376 232.087" id="Path" fill="none" vector-effect="non-scaling-stroke" stroke-width="4" stroke="rgb(255,255,255)" stroke-linejoin="miter" stroke-linecap="square" stroke-miterlimit="3"/><path d=" M 85.415 248.294 L 80.713 224.228 L 95.3 221.408" id="Path" fill="none" vector-effect="non-scaling-stroke" stroke-width="4" stroke="rgb(255,255,255)" stroke-linejoin="miter" stroke-linecap="square" stroke-miterlimit="3"/></g><g style="isolation:isolate" id="clade"><path d=" M 96.278 181.465 L 85.076 189.025 L 76.256 175.956 L 87.541 168.348" id="Path" fill="none" vector-effect="non-scaling-stroke" stroke-width="4" stroke="rgb(255,255,255)" stroke-linejoin="miter" stroke-linecap="square" stroke-miterlimit="3"/><path d=" M 79.985 182.64 L 64.64 192.969 L 50.924 172.643 L 60.259 166.343" id="Path" fill="none" vector-effect="non-scaling-stroke" stroke-width="4" stroke="rgb(255,255,255)" stroke-linejoin="miter" stroke-linecap="square" stroke-miterlimit="3"/><line x1="57.087" y1="183.673" x2="28.48" y2="203.612" id="Path" vector-effect="non-scaling-stroke" stroke-width="4" stroke="rgb(255,255,255)" stroke-linejoin="miter" stroke-linecap="square" stroke-miterlimit="3"/></g><g style="isolation:isolate" id="clade"><path d=" M 133.268 382.212 L 120.099 379.178 L 116.559 394.542 L 129.822 397.591" id="Path" fill="none" vector-effect="non-scaling-stroke" stroke-width="4" stroke="rgb(255,255,255)" stroke-linejoin="miter" stroke-linecap="square" stroke-miterlimit="3"/><path d=" M 117.639 386.965 L 99.61 382.834 L 94.105 406.729 L 105.079 409.257" id="Path" fill="none" vector-effect="non-scaling-stroke" stroke-width="4" stroke="rgb(255,255,255)" stroke-linejoin="miter" stroke-linecap="square" stroke-miterlimit="3"/><line x1="95.897" y1="394.221" x2="62.598" y2="386.528" id="Path" vector-effect="non-scaling-stroke" stroke-width="4" stroke="rgb(255,255,255)" stroke-linejoin="miter" stroke-linecap="square" stroke-miterlimit="3"/></g></g><g style="isolation:isolate" id="section"><path d=" M -303.239 451.195 C -330.172 415.445 -343.495 376.459 -344.419 331.284 C -345.336 286.524 -333.835 247.267 -308.962 210.906" id="Path" fill="none" vector-effect="non-scaling-stroke" stroke-width="4" stroke="rgb(255,255,255)" stroke-linejoin="miter" stroke-linecap="square" stroke-miterlimit="3"/><line x1="-344.676" y1="331.711" x2="-136.812" y2="327.456" id="Path" vector-effect="non-scaling-stroke" stroke-width="4" stroke="rgb(255,255,255)" stroke-linejoin="miter" stroke-linecap="square" stroke-miterlimit="3"/><g style="isolation:isolate" id="clade"><path d=" M -376.495 467.47 L -357.268 455.678 L -352.861 462.801 L -364.317 469.871" id="Path" fill="none" vector-effect="non-scaling-stroke" stroke-width="4" stroke="rgb(255,255,255)" stroke-linejoin="miter" stroke-linecap="square" stroke-miterlimit="3"/><path d=" M -354.909 459.491 L -343.416 452.381 L -335.121 465.789 L -347.841 473.706" id="Path" fill="none" vector-effect="non-scaling-stroke" stroke-width="4" stroke="rgb(255,255,255)" stroke-linejoin="miter" stroke-linecap="square" stroke-miterlimit="3"/><path d=" M -339.134 459.302 L -330.515 453.97 L -317.613 474.823 L -331.87 483.517" id="Path" fill="none" vector-effect="non-scaling-stroke" stroke-width="4" stroke="rgb(255,255,255)" stroke-linejoin="miter" stroke-linecap="square" stroke-miterlimit="3"/><line x1="-323.335" y1="463.557" x2="-305.469" y2="452.563" id="Path" vector-effect="non-scaling-stroke" stroke-width="4" stroke="rgb(255,255,255)" stroke-linejoin="miter" stroke-linecap="square" stroke-miterlimit="3"/></g><g style="isolation:isolate" id="clade"><path d=" M -413.324 357.897 L -390.773 357.408 L -390.923 349.033 L -404.382 349.288" id="Path" fill="none" vector-effect="non-scaling-stroke" stroke-width="4" stroke="rgb(255,255,255)" stroke-linejoin="miter" stroke-linecap="square" stroke-miterlimit="3"/><path d=" M -390.853 352.924 L -377.341 352.683 L -377.622 336.919 L -388.882 337.12" id="Path" fill="none" vector-effect="non-scaling-stroke" stroke-width="4" stroke="rgb(255,255,255)" stroke-linejoin="miter" stroke-linecap="square" stroke-miterlimit="3"/><path d=" M -377.486 344.546 L -367.352 344.366 L -367.789 319.848 L -379.049 320.049" id="Path" fill="none" vector-effect="non-scaling-stroke" stroke-width="4" stroke="rgb(255,255,255)" stroke-linejoin="miter" stroke-linecap="square" stroke-miterlimit="3"/><line x1="-366.503" y1="332.418" x2="-344.639" y2="331.97" id="Path" vector-effect="non-scaling-stroke" stroke-width="4" stroke="rgb(255,255,255)" stroke-linejoin="miter" stroke-linecap="square" stroke-miterlimit="3"/></g><g style="isolation:isolate" id="clade"><line x1="-377.659" y1="256.219" x2="-335.261" y2="262.806" id="Path" vector-effect="non-scaling-stroke" stroke-width="4" stroke="rgb(255,255,255)" stroke-linejoin="miter" stroke-linecap="square" stroke-miterlimit="3"/><path d=" M -410.747 271.725 L -391.809 274.615 L -389.418 259.031 L -400.55 257.323" id="Path" fill="none" vector-effect="non-scaling-stroke" stroke-width="4" stroke="rgb(255,255,255)" stroke-linejoin="miter" stroke-linecap="square" stroke-miterlimit="3"/><path d=" M -390.575 266.571 L -380.557 268.108 L -376.838 243.871 L -387.969 242.163" id="Path" fill="none" vector-effect="non-scaling-stroke" stroke-width="4" stroke="rgb(255,255,255)" stroke-linejoin="miter" stroke-linecap="square" stroke-miterlimit="3"/><path d=" M -364.368 257.421 L -360.649 233.184 L -375.339 230.959" id="Path" fill="none" vector-effect="non-scaling-stroke" stroke-width="4" stroke="rgb(255,255,255)" stroke-linejoin="miter" stroke-linecap="square" stroke-miterlimit="3"/></g><g style="isolation:isolate" id="clade"><path d=" M -377.942 191.09 L -366.442 198.188 L -358.161 184.77 L -369.746 177.628" id="Path" fill="none" vector-effect="non-scaling-stroke" stroke-width="4" stroke="rgb(255,255,255)" stroke-linejoin="miter" stroke-linecap="square" stroke-miterlimit="3"/><path d=" M -361.615 191.601 L -345.862 201.296 L -332.984 180.429 L -342.568 174.514" id="Path" fill="none" vector-effect="non-scaling-stroke" stroke-width="4" stroke="rgb(255,255,255)" stroke-linejoin="miter" stroke-linecap="square" stroke-miterlimit="3"/><line x1="-338.693" y1="191.701" x2="-309.299" y2="210.458" id="Path" vector-effect="non-scaling-stroke" stroke-width="4" stroke="rgb(255,255,255)" stroke-linejoin="miter" stroke-linecap="square" stroke-miterlimit="3"/></g><g style="isolation:isolate" id="clade"><path d=" M -406.73 393.176 L -393.695 389.608 L -389.533 404.816 L -402.661 408.402" id="Path" fill="none" vector-effect="non-scaling-stroke" stroke-width="4" stroke="rgb(255,255,255)" stroke-linejoin="miter" stroke-linecap="square" stroke-miterlimit="3"/><path d=" M -390.921 397.289 L -373.074 392.427 L -366.601 416.079 L -377.464 419.051" id="Path" fill="none" vector-effect="non-scaling-stroke" stroke-width="4" stroke="rgb(255,255,255)" stroke-linejoin="miter" stroke-linecap="square" stroke-miterlimit="3"/><line x1="-368.901" y1="403.654" x2="-335.943" y2="394.612" id="Path" vector-effect="non-scaling-stroke" stroke-width="4" stroke="rgb(255,255,255)" stroke-linejoin="miter" stroke-linecap="square" stroke-miterlimit="3"/></g></g><g style="isolation:isolate" id="section"><path d=" M -20.79 157.031 C -57.607 131.576 -97.103 119.851 -142.278 120.766 C -187.039 121.673 -225.795 134.762 -261.113 161.094" id="Path" fill="none" vector-effect="non-scaling-stroke" stroke-width="4" stroke="rgb(255,255,255)" stroke-linejoin="miter" stroke-linecap="square" stroke-miterlimit="3"/><line x1="-141.862" y1="120.492" x2="-137.652" y2="328.357" id="Path" vector-effect="non-scaling-stroke" stroke-width="4" stroke="rgb(255,255,255)" stroke-linejoin="miter" stroke-linecap="square" stroke-miterlimit="3"/><g style="isolation:isolate" id="clade"><path d=" M -7.51 83.173 L -18.51 102.865 L -11.214 106.978 L -4.616 95.244" id="Path" fill="none" vector-effect="non-scaling-stroke" stroke-width="4" stroke="rgb(255,255,255)" stroke-linejoin="miter" stroke-linecap="square" stroke-miterlimit="3"/><path d=" M -14.604 105.067 L -21.241 116.839 L -7.506 124.582 L -0.113 111.55" id="Path" fill="none" vector-effect="non-scaling-stroke" stroke-width="4" stroke="rgb(255,255,255)" stroke-linejoin="miter" stroke-linecap="square" stroke-miterlimit="3"/><path d=" M -14.151 120.836 L -19.128 129.665 L 2.233 141.707 L 10.34 127.108" id="Path" fill="none" vector-effect="non-scaling-stroke" stroke-width="4" stroke="rgb(255,255,255)" stroke-linejoin="miter" stroke-linecap="square" stroke-miterlimit="3"/><line x1="-9.256" y1="136.449" x2="-19.514" y2="154.747" id="Path" vector-effect="non-scaling-stroke" stroke-width="4" stroke="rgb(255,255,255)" stroke-linejoin="miter" stroke-linecap="square" stroke-miterlimit="3"/></g><g style="isolation:isolate" id="clade"><path d=" M -118.492 50.836 L -118.063 73.387 L -126.437 73.579 L -126.73 60.12" id="Path" fill="none" vector-effect="non-scaling-stroke" stroke-width="4" stroke="rgb(255,255,255)" stroke-linejoin="miter" stroke-linecap="square" stroke-miterlimit="3"/><path d=" M -122.546 73.49 L -122.237 87 L -137.999 87.361 L -138.257 76.102" id="Path" fill="none" vector-effect="non-scaling-stroke" stroke-width="4" stroke="rgb(255,255,255)" stroke-linejoin="miter" stroke-linecap="square" stroke-miterlimit="3"/><path d=" M -130.373 87.187 L -130.141 97.32 L -154.656 97.881 L -154.914 86.622" id="Path" fill="none" vector-effect="non-scaling-stroke" stroke-width="4" stroke="rgb(255,255,255)" stroke-linejoin="miter" stroke-linecap="square" stroke-miterlimit="3"/><line x1="-142.044" y1="98.654" x2="-141.601" y2="120.518" id="Path" vector-effect="non-scaling-stroke" stroke-width="4" stroke="rgb(255,255,255)" stroke-linejoin="miter" stroke-linecap="square" stroke-miterlimit="3"/></g><g style="isolation:isolate" id="clade"><line x1="-218.634" y1="90.61" x2="-210.327" y2="132.704" id="Path" vector-effect="non-scaling-stroke" stroke-width="4" stroke="rgb(255,255,255)" stroke-linejoin="miter" stroke-linecap="square" stroke-miterlimit="3"/><path d=" M -204.488 56.918 L -200.829 75.722 L -216.303 78.746 L -218.463 67.693" id="Path" fill="none" vector-effect="non-scaling-stroke" stroke-width="4" stroke="rgb(255,255,255)" stroke-linejoin="miter" stroke-linecap="square" stroke-miterlimit="3"/><path d=" M -208.816 77.283 L -206.873 87.23 L -230.939 91.933 L -233.098 80.88" id="Path" fill="none" vector-effect="non-scaling-stroke" stroke-width="4" stroke="rgb(255,255,255)" stroke-linejoin="miter" stroke-linecap="square" stroke-miterlimit="3"/><path d=" M -216.892 103.84 L -240.958 108.543 L -243.778 93.956" id="Path" fill="none" vector-effect="non-scaling-stroke" stroke-width="4" stroke="rgb(255,255,255)" stroke-linejoin="miter" stroke-linecap="square" stroke-miterlimit="3"/></g><g style="isolation:isolate" id="clade"><path d=" M -283.72 92.978 L -276.161 104.18 L -289.23 112.999 L -296.837 101.715" id="Path" fill="none" vector-effect="non-scaling-stroke" stroke-width="4" stroke="rgb(255,255,255)" stroke-linejoin="miter" stroke-linecap="square" stroke-miterlimit="3"/><path d=" M -282.546 109.271 L -272.217 124.615 L -292.543 138.332 L -298.843 128.997" id="Path" fill="none" vector-effect="non-scaling-stroke" stroke-width="4" stroke="rgb(255,255,255)" stroke-linejoin="miter" stroke-linecap="square" stroke-miterlimit="3"/><line x1="-281.513" y1="132.169" x2="-261.574" y2="160.776" id="Path" vector-effect="non-scaling-stroke" stroke-width="4" stroke="rgb(255,255,255)" stroke-linejoin="miter" stroke-linecap="square" stroke-miterlimit="3"/></g><g style="isolation:isolate" id="clade"><path d=" M -82.974 55.988 L -86.008 69.157 L -70.644 72.697 L -67.595 59.434" id="Path" fill="none" vector-effect="non-scaling-stroke" stroke-width="4" stroke="rgb(255,255,255)" stroke-linejoin="miter" stroke-linecap="square" stroke-miterlimit="3"/><path d=" M -78.221 71.616 L -82.352 89.646 L -58.457 95.151 L -55.929 84.177" id="Path" fill="none" vector-effect="non-scaling-stroke" stroke-width="4" stroke="rgb(255,255,255)" stroke-linejoin="miter" stroke-linecap="square" stroke-miterlimit="3"/><line x1="-70.964" y1="93.359" x2="-78.657" y2="126.658" id="Path" vector-effect="non-scaling-stroke" stroke-width="4" stroke="rgb(255,255,255)" stroke-linejoin="miter" stroke-linecap="square" stroke-miterlimit="3"/></g></g><g style="isolation:isolate" id="section"><path d=" M -13.972 493.652 C -49.729 520.577 -88.718 533.892 -133.893 534.807 C -178.653 535.713 -217.908 524.204 -254.263 499.324" id="Path" fill="none" vector-effect="non-scaling-stroke" stroke-width="4" stroke="rgb(255,255,255)" stroke-linejoin="miter" stroke-linecap="square" stroke-miterlimit="3"/><line x1="-133.466" y1="535.064" x2="-137.676" y2="327.199" id="Path" vector-effect="non-scaling-stroke" stroke-width="4" stroke="rgb(255,255,255)" stroke-linejoin="miter" stroke-linecap="square" stroke-miterlimit="3"/><g style="isolation:isolate" id="clade"><path d=" M 2.287 566.912 L -9.501 547.682 L -2.377 543.277 L 4.69 554.734" id="Path" fill="none" vector-effect="non-scaling-stroke" stroke-width="4" stroke="rgb(255,255,255)" stroke-linejoin="miter" stroke-linecap="square" stroke-miterlimit="3"/><path d=" M -5.687 545.324 L -12.795 533.83 L 0.615 525.537 L 8.529 538.259" id="Path" fill="none" vector-effect="non-scaling-stroke" stroke-width="4" stroke="rgb(255,255,255)" stroke-linejoin="miter" stroke-linecap="square" stroke-miterlimit="3"/><path d=" M -5.873 529.549 L -11.204 520.929 L 9.652 508.032 L 18.343 522.29" id="Path" fill="none" vector-effect="non-scaling-stroke" stroke-width="4" stroke="rgb(255,255,255)" stroke-linejoin="miter" stroke-linecap="square" stroke-miterlimit="3"/><line x1="-1.615" y1="513.751" x2="-12.605" y2="495.883" id="Path" vector-effect="non-scaling-stroke" stroke-width="4" stroke="rgb(255,255,255)" stroke-linejoin="miter" stroke-linecap="square" stroke-miterlimit="3"/></g><g style="isolation:isolate" id="clade"><path d=" M -107.294 603.717 L -107.779 581.167 L -116.153 581.314 L -115.902 594.773" id="Path" fill="none" vector-effect="non-scaling-stroke" stroke-width="4" stroke="rgb(255,255,255)" stroke-linejoin="miter" stroke-linecap="square" stroke-miterlimit="3"/><path d=" M -112.262 581.245 L -112.5 567.733 L -128.265 568.011 L -128.066 579.271" id="Path" fill="none" vector-effect="non-scaling-stroke" stroke-width="4" stroke="rgb(255,255,255)" stroke-linejoin="miter" stroke-linecap="square" stroke-miterlimit="3"/><path d=" M -120.637 567.876 L -120.816 557.742 L -145.333 558.174 L -145.135 569.434" id="Path" fill="none" vector-effect="non-scaling-stroke" stroke-width="4" stroke="rgb(255,255,255)" stroke-linejoin="miter" stroke-linecap="square" stroke-miterlimit="3"/><line x1="-132.764" y1="556.891" x2="-133.206" y2="535.027" id="Path" vector-effect="non-scaling-stroke" stroke-width="4" stroke="rgb(255,255,255)" stroke-linejoin="miter" stroke-linecap="square" stroke-miterlimit="3"/></g><g style="isolation:isolate" id="clade"><line x1="-208.965" y1="568.03" x2="-202.369" y2="525.634" id="Path" vector-effect="non-scaling-stroke" stroke-width="4" stroke="rgb(255,255,255)" stroke-linejoin="miter" stroke-linecap="square" stroke-miterlimit="3"/><path d=" M -193.466 601.121 L -190.571 582.185 L -206.155 579.79 L -207.866 590.921" id="Path" fill="none" vector-effect="non-scaling-stroke" stroke-width="4" stroke="rgb(255,255,255)" stroke-linejoin="miter" stroke-linecap="square" stroke-miterlimit="3"/><path d=" M -198.616 580.949 L -197.076 570.93 L -221.313 567.206 L -223.023 578.338" id="Path" fill="none" vector-effect="non-scaling-stroke" stroke-width="4" stroke="rgb(255,255,255)" stroke-linejoin="miter" stroke-linecap="square" stroke-miterlimit="3"/><path d=" M -207.76 554.74 L -231.996 551.016 L -234.224 565.704" id="Path" fill="none" vector-effect="non-scaling-stroke" stroke-width="4" stroke="rgb(255,255,255)" stroke-linejoin="miter" stroke-linecap="square" stroke-miterlimit="3"/></g><g style="isolation:isolate" id="clade"><path d=" M -274.094 568.299 L -266.994 556.8 L -280.409 548.517 L -287.554 560.1" id="Path" fill="none" vector-effect="non-scaling-stroke" stroke-width="4" stroke="rgb(255,255,255)" stroke-linejoin="miter" stroke-linecap="square" stroke-miterlimit="3"/><path d=" M -273.579 551.972 L -263.881 536.222 L -284.745 523.339 L -290.662 532.922" id="Path" fill="none" vector-effect="non-scaling-stroke" stroke-width="4" stroke="rgb(255,255,255)" stroke-linejoin="miter" stroke-linecap="square" stroke-miterlimit="3"/><line x1="-273.475" y1="529.05" x2="-254.711" y2="499.66" id="Path" vector-effect="non-scaling-stroke" stroke-width="4" stroke="rgb(255,255,255)" stroke-linejoin="miter" stroke-linecap="square" stroke-miterlimit="3"/></g><g style="isolation:isolate" id="clade"><path d=" M -72.014 597.131 L -75.579 584.095 L -60.371 579.936 L -56.787 593.065" id="Path" fill="none" vector-effect="non-scaling-stroke" stroke-width="4" stroke="rgb(255,255,255)" stroke-linejoin="miter" stroke-linecap="square" stroke-miterlimit="3"/><path d=" M -67.898 581.322 L -72.756 563.475 L -49.103 557.007 L -46.132 567.87" id="Path" fill="none" vector-effect="non-scaling-stroke" stroke-width="4" stroke="rgb(255,255,255)" stroke-linejoin="miter" stroke-linecap="square" stroke-miterlimit="3"/><line x1="-61.527" y1="559.304" x2="-70.562" y2="526.344" id="Path" vector-effect="non-scaling-stroke" stroke-width="4" stroke="rgb(255,255,255)" stroke-linejoin="miter" stroke-linecap="square" stroke-miterlimit="3"/></g></g></g></svg>