<?xml version="1.0" encoding="utf-8"?>
<!-- Generator: Adobe Illustrator 21.1.0, SVG Export Plug-In . SVG Version: 6.00 Build 0)  -->
<svg version="1.1" id="Layer_1" xmlns="http://www.w3.org/2000/svg" xmlns:xlink="http://www.w3.org/1999/xlink" x="0px" y="0px"
	 viewBox="0 0 1280 310.5" style="enable-background:new 0 0 1280 310.5;" xml:space="preserve">
<style type="text/css">
	.st0{fill:none;}
	.st1{fill:#4D4D4D;}
	.st2{font-family:'MyriadPro-Regular';}
	.st3{font-size:12px;}
	.st4{fill:#FF0000;stroke:#030303;stroke-miterlimit:10;}
	.st5{fill:#0600FF;stroke:#030303;stroke-miterlimit:10;}
	.st6{fill:#009245;stroke:#030303;stroke-miterlimit:10;}
	.st7{fill:#CCCCCC;stroke:#666666;stroke-miterlimit:10;}
	.st8{fill:none;stroke:#030303;stroke-miterlimit:10;}
	.st9{fill:#0000FF;stroke:#030303;stroke-miterlimit:10;}
	.st10{fill:#FF1D25;}
	.st11{font-family:'MyriadPro-Bold';}
	.st12{fill:none;stroke:#000000;stroke-width:2;stroke-miterlimit:10;}
	.st13{font-size:18px;}
	.st14{font-size:10px;}
	.st15{font-size:14px;}
</style>
<g id="Layer_1_1_">
</g>
<g id="index">
	<rect x="146.7" y="43" class="st0" width="76.3" height="11"/>
	<text transform="matrix(1 0 0 1 178.0743 51.52)" class="st1 st2 st3">A1</text>
	
		<rect x="110.4" y="24.4" transform="matrix(3.368920e-03 -1 1 3.368920e-03 53.0087 178.2484)" class="st0" width="11" height="76.3"/>
	<text transform="matrix(1 0 0 1 109.2442 65.4557)" class="st1 st2 st3">A2</text>
	<rect x="78.2" y="69.6" class="st4" width="76" height="4.5"/>
	<rect x="147" y="55.5" class="st4" width="76" height="4.5"/>
	<rect x="83.9" y="99.5" class="st5" width="63.5" height="4"/>
	<rect x="131.7" y="121.5" class="st5" width="63.5" height="4"/>
	<rect x="153" y="91.5" class="st5" width="63.5" height="4"/>
	
		<rect x="179.3" y="53.3" transform="matrix(3.368921e-03 -1 1 3.368921e-03 98.6789 270.0079)" class="st0" width="11" height="64.3"/>
	<text transform="matrix(1 0 0 1 178.4981 88.3911)" class="st1 st2 st3">B1</text>
	
		<rect x="157.9" y="83.4" transform="matrix(3.368921e-03 -1 1 3.368921e-03 47.319 278.5392)" class="st0" width="11" height="64.3"/>
	<text transform="matrix(1 0 0 1 157.164 118.3911)" class="st1 st2 st3">B3</text>
	
		<rect x="110.7" y="65.6" transform="matrix(3.368921e-03 -1 1 3.368921e-03 21.1573 209.4179)" class="st0" width="9.8" height="57"/>
	<text transform="matrix(1 0 0 1 109.3687 97.6611)" class="st1 st2 st3">B2</text>
	<rect x="72" y="142.5" class="st6" width="76" height="4.5"/>
	<rect x="163.5" y="150.5" class="st6" width="58.5" height="4"/>
	
		<rect x="104.4" y="98.3" transform="matrix(3.368920e-03 -1 1 3.368920e-03 -27.0026 245.8913)" class="st0" width="11" height="76.3"/>
	<text transform="matrix(1 0 0 1 103.2672 139.3906)" class="st1 st2 st3">C1</text>
	
		<rect x="187.3" y="115.3" transform="matrix(3.368921e-03 -1 1 3.368921e-03 47.6724 336.83)" class="st0" width="11" height="58.3"/>
	<text transform="matrix(1 0 0 1 186.2706 147.3911)" class="st1 st2 st3">C2</text>
	<circle class="st7" cx="345.5" cy="54.5" r="45"/>
	<circle class="st7" cx="437.5" cy="83.5" r="45"/>
	<circle class="st7" cx="363.5" cy="146.5" r="45"/>
	<rect x="527.7" y="175.2" class="st4" width="76" height="4.5"/>
	<rect x="527.7" y="189.2" class="st5" width="63.5" height="4"/>
	<rect x="527.7" y="201.2" class="st6" width="76" height="4.5"/>
	<path class="st8" d="M936,65c0,0-12.4,21.9-21.9,21.9c-12.5,0-21.9-21.9-21.9-21.9s13.4-21.9,21.9-21.9S936,65,936,65z"/>
	<path class="st8" d="M981,65c0,0-13.4,21.9-21.9,21.9s-22-21.9-22-21.9s11.4-21.9,21.9-21.9S981,65,981,65z"/>
	<circle class="st6" cx="893.1" cy="65" r="3.5"/>
	<circle class="st6" cx="936.1" cy="65" r="3.5"/>
	<circle class="st6" cx="979.1" cy="65" r="3.5"/>
	<circle class="st6" cx="914.1" cy="43" r="3.5"/>
	<circle class="st6" cx="959.1" cy="43" r="3.5"/>
	<circle class="st6" cx="914.1" cy="87" r="3.5"/>
	<circle class="st6" cx="959.1" cy="87" r="3.5"/>
	<path class="st8" d="M647.9,43c-16,0-22.5,21.5-22.5,21.5h45C670.5,64.5,663.9,43,647.9,43z"/>
	<path class="st8" d="M683.9,88.5c8,0,13.9-24,13.9-24h-27.7C670.1,64.5,675.9,88.5,683.9,88.5z"/>
	<path class="st8" d="M627.9,89c12,0,22.5-24.5,22.5-24.5h-45C605.4,64.5,615.9,89,627.9,89z"/>
	<circle class="st4" cx="697.4" cy="65" r="3.5"/>
	<circle class="st4" cx="670.4" cy="65" r="3.5"/>
	<circle class="st4" cx="650.4" cy="65" r="3.5"/>
	<circle class="st4" cx="625.4" cy="65" r="3.5"/>
	<circle class="st4" cx="605.4" cy="65" r="3.5"/>
	<circle class="st4" cx="683.4" cy="89" r="3.5"/>
	<circle class="st4" cx="648.4" cy="43" r="3.5"/>
	<line class="st8" x1="744.1" y1="65.5" x2="850.1" y2="65.5"/>
	<path class="st8" d="M781.1,43.5c-6,0-13.2,6.8-15.6,8.9c-2.4,2.1-3.4,13.1-3.4,13.1s6.7,22,10.3,23s14,1,17.3,0s10.3-23,10.3-23
		s-1.8-11.2-3.4-13.1C795.1,50.5,787.1,43.5,781.1,43.5z"/>
	<circle class="st4" cx="627.4" cy="89" r="3.5"/>
	<circle class="st9" cx="772.6" cy="89" r="3.5"/>
	<circle class="st9" cx="743.6" cy="65" r="3.5"/>
	<circle class="st9" cx="762.6" cy="65" r="3.5"/>
	<circle class="st9" cx="799.6" cy="65" r="3.5"/>
	<circle class="st9" cx="816.6" cy="65" r="3.5"/>
	<circle class="st9" cx="850.6" cy="65" r="3.5"/>
	<circle class="st9" cx="833.6" cy="65" r="3.5"/>
	<circle class="st9" cx="789.6" cy="89" r="3.5"/>
	<circle class="st9" cx="781.6" cy="43" r="3.5"/>
	<circle class="st9" cx="796.6" cy="52" r="3.5"/>
	<circle class="st9" cx="766.6" cy="52" r="3.5"/>
	<rect x="297" y="11" class="st0" width="27" height="11"/>
	<text transform="matrix(1 0 0 1 306.8281 19.52)" class="st1 st2 st3">A</text>
	<rect x="393" y="37" class="st0" width="27" height="11"/>
	<text transform="matrix(1 0 0 1 403.248 45.52)" class="st1 st2 st3">B</text>
	<rect x="315" y="104" class="st0" width="27" height="11"/>
	<text transform="matrix(1 0 0 1 325.02 112.52)" class="st1 st2 st3">C</text>
	<rect x="591.4" y="34" class="st0" width="27" height="11"/>
	<text transform="matrix(1 0 0 1 601.2656 42.52)" class="st1 st2 st3">A</text>
	<rect x="730.1" y="33.5" class="st0" width="27" height="11"/>
	<text transform="matrix(1 0 0 1 740.3105 42.02)" class="st1 st2 st3">B</text>
	<rect x="880.1" y="34" class="st0" width="27" height="11"/>
	<text transform="matrix(1 0 0 1 890.0825 42.52)" class="st1 st2 st3">C</text>
	<rect x="406" y="80.5" class="st5" width="63.5" height="4"/>
	<rect x="406" y="93.5" class="st5" width="63.5" height="4"/>
	<rect x="406" y="65.5" class="st5" width="63.5" height="4"/>
	<rect x="325" y="136.5" class="st6" width="76" height="4.5"/>
	<rect x="333.5" y="148.5" class="st6" width="58.5" height="4"/>
	<rect x="307" y="58.5" class="st4" width="76" height="4.5"/>
	<rect x="307" y="43.5" class="st4" width="76" height="4.5"/>
	<rect x="700" y="184.5" class="st7" width="47" height="22"/>
	<rect x="700.5" y="193.5" class="st4" width="76" height="4.5"/>
	<rect x="715" y="212.5" class="st7" width="47" height="22"/>
	<rect x="700.5" y="221.5" class="st4" width="76" height="4.5"/>
	<rect x="730" y="240.5" class="st7" width="47" height="22"/>
	<rect x="700.5" y="249.5" class="st4" width="76" height="4.5"/>
	<rect x="1083.5" y="187" class="st0" width="125.5" height="15"/>
	<text transform="matrix(1 0 0 1 1099.5645 195.52)" class="st10 st11 st3">[n]int64{1, 2, ... n}</text>
	<rect x="863.5" y="184.5" class="st7" width="47" height="22"/>
	<rect x="878.5" y="212.5" class="st7" width="47" height="22"/>
	<rect x="893.5" y="240.5" class="st7" width="47" height="22"/>
	<rect x="865" y="186.5" class="st4" width="17.5" height="2"/>
	<rect x="867" y="190.5" class="st4" width="17.5" height="2"/>
	<rect x="869" y="194.5" class="st4" width="17.5" height="2"/>
	<rect x="871" y="198.5" class="st4" width="17.5" height="2"/>
	<rect x="873" y="202.5" class="st4" width="17.5" height="2"/>
	<rect x="884" y="186.5" class="st4" width="17.5" height="2"/>
	<rect x="886" y="190.5" class="st4" width="17.5" height="2"/>
	<rect x="888" y="194.5" class="st4" width="17.5" height="2"/>
	<rect x="890" y="198.5" class="st4" width="17.5" height="2"/>
	<rect x="892" y="202.5" class="st4" width="17.5" height="2"/>
	<rect x="880" y="214.5" class="st4" width="17.5" height="2"/>
	<rect x="882" y="218.5" class="st4" width="17.5" height="2"/>
	<rect x="884" y="222.5" class="st4" width="17.5" height="2"/>
	<rect x="886" y="226.5" class="st4" width="17.5" height="2"/>
	<rect x="888" y="230.5" class="st4" width="17.5" height="2"/>
	<rect x="899" y="214.5" class="st4" width="17.5" height="2"/>
	<rect x="901" y="218.5" class="st4" width="17.5" height="2"/>
	<rect x="903" y="222.5" class="st4" width="17.5" height="2"/>
	<rect x="905" y="226.5" class="st4" width="17.5" height="2"/>
	<rect x="907" y="230.5" class="st4" width="17.5" height="2"/>
	<rect x="895" y="242.5" class="st4" width="17.5" height="2"/>
	<rect x="897" y="246.5" class="st4" width="17.5" height="2"/>
	<rect x="899" y="250.5" class="st4" width="17.5" height="2"/>
	<rect x="901" y="254.5" class="st4" width="17.5" height="2"/>
	<rect x="903" y="258.5" class="st4" width="17.5" height="2"/>
	<rect x="914" y="242.5" class="st4" width="17.5" height="2"/>
	<rect x="916" y="246.5" class="st4" width="17.5" height="2"/>
	<rect x="918" y="250.5" class="st4" width="17.5" height="2"/>
	<rect x="920" y="254.5" class="st4" width="17.5" height="2"/>
	<rect x="922" y="258.5" class="st4" width="17.5" height="2"/>
	<rect x="1021" y="187" class="st0" width="83" height="11"/>
	<text transform="matrix(1 0 0 1 1029.4165 195.52)" class="st1 st2 st3">A.window1 =</text>
	<rect x="1083.5" y="216" class="st0" width="125.5" height="15"/>
	<text transform="matrix(1 0 0 1 1099.5645 224.52)" class="st10 st11 st3">[n]int64{1, 2, ... n}</text>
	<rect x="1021" y="216" class="st0" width="83" height="11"/>
	<text transform="matrix(1 0 0 1 1029.4165 224.52)" class="st1 st2 st3">A.window2 =</text>
	<rect x="1083.5" y="244" class="st0" width="125.5" height="15"/>
	<text transform="matrix(1 0 0 1 1099.5645 252.52)" class="st10 st11 st3">[n]int64{1, 2, ... n}</text>
	<rect x="1021" y="244" class="st0" width="83" height="11"/>
	<text transform="matrix(1 0 0 1 1029.4165 252.52)" class="st1 st2 st3">A.window3 =</text>
	<g>
		<g>
			<line class="st12" x1="298.7" y1="101" x2="225.7" y2="101"/>
			<g>
				<polygon points="293.1,93.6 296.3,101 293.1,108.4 310.7,101 				"/>
			</g>
		</g>
	</g>
	<g>
		<g>
			<line class="st12" x1="562.4" y1="70.9" x2="488.5" y2="101"/>
			<g>
				<polygon points="554.4,66.1 560.2,71.8 560,79.9 573.5,66.4 				"/>
			</g>
		</g>
	</g>
	<g>
		<g>
			<line class="st12" x1="545.8" y1="157.3" x2="489.5" y2="101"/>
			<g>
				<polygon points="547.1,148.1 544,155.5 536.6,158.6 554.2,165.7 				"/>
			</g>
		</g>
	</g>
	<g>
		<g>
			<line class="st12" x1="1009.1" y1="221.5" x2="936" y2="221.5"/>
			<g>
				<polygon points="1003.4,214.1 1006.6,221.5 1003.4,228.9 1021,221.5 				"/>
			</g>
		</g>
	</g>
	<g>
		<g>
			<line class="st12" x1="860.1" y1="221.5" x2="787" y2="221.5"/>
			<g>
				<polygon points="854.4,214.1 857.6,221.5 854.4,228.9 872,221.5 				"/>
			</g>
		</g>
	</g>
	<line class="st12" x1="610.5" y1="222" x2="598.9" y2="210.4"/>
	<g>
		<g>
			<line class="st12" x1="682.8" y1="221.5" x2="609.8" y2="221.5"/>
			<g>
				<polygon points="677.2,214.1 680.4,221.5 677.2,228.9 694.8,221.5 				"/>
			</g>
		</g>
	</g>
	<line class="st12" x1="49.7" y1="9.5" x2="49.7" y2="305.7"/>
	<line class="st12" x1="58.3" y1="10.5" x2="49.3" y2="10.5"/>
	<rect x="26.3" y="92.1" class="st0" width="17.3" height="131"/>
	<text transform="matrix(0 -1 1 0 39.1127 182.9854)" class="st1 st11 st13">INDEX</text>
	<rect x="225.7" y="89.1" class="st0" width="68.7" height="20.3"/>
	<text transform="matrix(1 0 0 1 239.9852 96.2254)" class="st11 st14">CLUSTER</text>
	<rect x="610.6" y="209.1" class="st0" width="68.7" height="20.3"/>
	<text transform="matrix(1 0 0 1 624.1176 216.2254)" class="st11 st14">WINDOW</text>
	<rect x="786.9" y="209.1" class="st0" width="68.7" height="20.3"/>
	<text transform="matrix(1 0 0 1 792.4501 216.2254)" class="st11 st14">DECOMPOSE</text>
	<rect x="936.4" y="209.1" class="st0" width="68.7" height="20.3"/>
	<text transform="matrix(1 0 0 1 957.8802 216.2254)" class="st11 st14">HASH</text>
	<g>
		<path d="M493.6,90.1l-4.5-5.5l1.5-0.6l1.8,2.3c0.5,0.7,1,1.3,1.5,2l0,0c-0.1-0.8-0.2-1.6-0.3-2.4l-0.3-3l1.5-0.6l0.4,7.1
			L493.6,90.1z"/>
		<path d="M498.3,86.3l0.2,1.8l-1.5,0.6l-0.6-7l1.9-0.7l4.4,5.5l-1.5,0.6l-1.1-1.4L498.3,86.3z M499.5,84.6l-0.9-1.2
			c-0.3-0.3-0.6-0.7-0.8-1.1l0,0c0.1,0.4,0.2,0.9,0.2,1.3l0.2,1.5L499.5,84.6z"/>
		<path d="M501.1,79.9c0.4-0.3,1.1-0.6,1.8-0.9c0.9-0.4,1.6-0.5,2.2-0.3c0.5,0.1,0.9,0.5,1.1,1.1c0.3,0.8,0,1.6-0.5,2l0,0
			c0.5,0,0.9,0.3,1.3,0.8c0.5,0.6,1,1.4,1.2,1.6l-1.4,0.6c-0.2-0.1-0.5-0.6-1-1.3c-0.5-0.7-0.8-0.8-1.4-0.6l-0.4,0.2l1,2.5l-1.4,0.6
			L501.1,79.9z M503.6,82l0.6-0.2c0.7-0.3,1-0.8,0.8-1.3c-0.2-0.6-0.7-0.7-1.4-0.5c-0.3,0.1-0.5,0.2-0.6,0.3L503.6,82z"/>
		<path d="M508,77.1l2.5,6.3l-1.4,0.6l-2.5-6.3L508,77.1z"/>
		<path d="M512.6,80.6l0.2,1.8l-1.5,0.6l-0.6-7l1.9-0.7l4.4,5.5l-1.5,0.6l-1.1-1.4L512.6,80.6z M513.7,78.9l-0.9-1.2
			c-0.3-0.3-0.6-0.7-0.8-1.1l0,0c0.1,0.4,0.2,0.9,0.2,1.3l0.2,1.5L513.7,78.9z"/>
		<path d="M517.8,80.4l-2.5-6.3l1.7-0.7l2.2,1.8c0.6,0.5,1.3,1.1,1.9,1.7l0,0c-0.4-0.8-0.8-1.6-1.2-2.6l-0.7-1.8l1.3-0.5l2.5,6.3
			l-1.5,0.6l-2.3-1.9c-0.6-0.5-1.4-1.2-2-1.8l0,0c0.4,0.8,0.7,1.7,1.1,2.7l0.8,1.9L517.8,80.4z"/>
		<path d="M523.4,72.3l-1.7,0.7l-0.5-1.2l4.8-1.9l0.5,1.2l-1.7,0.7l2,5.1l-1.4,0.6L523.4,72.3z"/>
		<path d="M535.7,73c-0.2,0.2-0.7,0.6-1.5,0.9c-2.2,0.9-3.8,0-4.5-1.8c-0.9-2.1,0.2-3.9,2.1-4.7c0.7-0.3,1.3-0.4,1.7-0.3l0.2,1.2
			c-0.3,0-0.8,0-1.3,0.2c-1.1,0.4-1.7,1.5-1.2,2.9c0.5,1.3,1.6,1.7,2.8,1.2c0.4-0.2,0.9-0.5,1.1-0.7L535.7,73z"/>
		<path d="M537.6,70.6l0.2,1.8l-1.5,0.6l-0.6-7l1.9-0.7l4.4,5.5l-1.5,0.6l-1.1-1.4L537.6,70.6z M538.8,68.9l-0.9-1.2
			c-0.3-0.3-0.6-0.7-0.8-1.1l0,0c0.1,0.4,0.2,0.9,0.2,1.3l0.2,1.5L538.8,68.9z"/>
		<path d="M540.4,64.1l1.4-0.6l2,5.1l2.5-1l0.5,1.2l-3.9,1.6L540.4,64.1z"/>
		<path d="M545.2,62.2l1.4-0.6l2,5.1l2.5-1l0.5,1.2l-3.9,1.6L545.2,62.2z"/>
	</g>
	<g>
		<path d="M512.4,106.5c0.4,0.3,1,0.8,1.5,1.3c0.7,0.7,1.1,1.3,1.2,1.9c0.1,0.5-0.1,1-0.6,1.4c-0.6,0.6-1.5,0.6-2,0.3l0,0
			c0.2,0.5,0.1,1-0.3,1.5c-0.4,0.7-0.9,1.5-1,1.7l-1.1-1.1c0.1-0.2,0.3-0.7,0.8-1.4c0.5-0.7,0.4-1.1,0-1.5l-0.3-0.3l-1.9,1.9
			l-1.1-1.1L512.4,106.5z M511.4,109.6l0.4,0.4c0.5,0.5,1.1,0.6,1.5,0.2s0.4-1-0.1-1.5c-0.3-0.3-0.4-0.4-0.5-0.5L511.4,109.6z"/>
		<path d="M516.7,116.2l-1.8-1.8l-1.1,1.1l2,2l-0.9,0.9l-3-3l4.8-4.8l2.9,2.9l-0.9,0.9l-1.9-1.9l-1,1l1.8,1.8L516.7,116.2z"/>
		<path d="M520.3,114.5c0.5,0.3,1,0.8,1.6,1.4c0.9,0.9,1.3,1.7,1.4,2.5c0.1,0.9-0.1,1.8-1,2.6c-0.9,0.9-1.9,1.2-2.7,1.1
			c-0.9-0.1-1.9-0.7-2.8-1.6c-0.6-0.6-0.9-1-1.2-1.3L520.3,114.5z M517.5,119.4c0.1,0.1,0.2,0.3,0.4,0.4c1,1,2.1,1.1,3.3-0.1
			c1-1,0.9-2.1,0-3c-0.2-0.2-0.4-0.4-0.5-0.4L517.5,119.4z"/>
		<path d="M526.4,120.4l-2.7,2.7c-0.8,0.8-0.9,1.5-0.4,2.1c0.6,0.6,1.3,0.5,2.1-0.4l2.7-2.7l1.1,1.1l-2.7,2.7
			c-1.5,1.5-2.9,1.4-4.2,0.2c-1.2-1.2-1.2-2.6,0.3-4.1l2.7-2.7L526.4,120.4z"/>
		<path d="M529,132.3c-0.3-0.1-0.8-0.4-1.4-1c-1.6-1.6-1.5-3.5-0.1-4.9c1.6-1.6,3.7-1.4,5.1,0.1c0.6,0.6,0.9,1.1,1,1.4l-1.1,0.6
			c-0.1-0.3-0.3-0.7-0.7-1.1c-0.9-0.9-2-1-3.1,0.1c-1,1-1,2.1,0,3.1c0.3,0.3,0.8,0.6,1.1,0.7L529,132.3z"/>
		<path d="M534.4,133.9l-1.8-1.8l-1.1,1.1l2,2l-0.9,0.9l-3-3l4.8-4.8l2.9,2.9l-0.9,0.9l-1.9-1.9l-1,1l1.8,1.8L534.4,133.9z"/>
	</g>
	
		<rect x="141.4" y="104.5" transform="matrix(3.368531e-03 -1 1 3.368531e-03 -33.3298 326.0349)" class="st0" width="11" height="150.4"/>
	<text transform="matrix(1 0 0 1 84.6266 183.9145)" class="st1 st2 st15">Reference Sequences</text>
	
		<rect x="382.8" y="126.1" transform="matrix(3.368559e-03 -1 1 3.368559e-03 179.6152 594.9145)" class="st0" width="11" height="162.5"/>
	<text transform="matrix(1 0 0 1 365.0253 211.4619)" class="st1 st2 st15">Clusters</text>
	
		<rect x="805.7" y="-55.7" transform="matrix(3.368773e-03 -1 1 3.368773e-03 692.897 926.3884)" class="st0" width="11" height="342.5"/>
	<text transform="matrix(1 0 0 1 738.1132 119.3404)" class="st1 st2 st15">Variation Graphs</text>
	
		<rect x="739.5" y="216.2" transform="matrix(3.367869e-03 -1 1 3.367869e-03 459.6308 1043.9679)" class="st0" width="28.2" height="150.4"/>
	<text transform="matrix(1 0 0 1 709.795 286.9402)" class="st1 st2 st15">Representative</text>
	<text transform="matrix(1 0 0 1 726.295 303.7402)" class="st1 st2 st15">Windows</text>
	
		<rect x="888" y="216.2" transform="matrix(3.367869e-03 -1 1 3.367869e-03 607.6334 1192.4663)" class="st0" width="28.2" height="150.4"/>
	<text transform="matrix(1 0 0 1 884.4532 286.9402)" class="st1 st2 st15">K-mer</text>
	<text transform="matrix(1 0 0 1 889.9532 303.7402)" class="st1 st2 st15">Sets</text>
	
		<rect x="1090" y="216.2" transform="matrix(3.367869e-03 -1 1 3.367869e-03 808.9565 1394.464)" class="st0" width="28.2" height="150.4"/>
	<text transform="matrix(1 0 0 1 1078.9635 286.9402)" class="st1 st2 st15">Minhash</text>
	<text transform="matrix(1 0 0 1 1072.9635 303.7402)" class="st1 st2 st15">Signatures</text>
	
		<rect x="543.5" y="160.1" transform="matrix(3.367731e-03 -1 1 3.367731e-03 322.2066 793.9503)" class="st0" width="31.8" height="150.4"/>
	<text transform="matrix(1 0 0 1 538.999 229.0663)" class="st1 st2 st15">Cluster</text>
	<text transform="matrix(1 0 0 1 512.899 245.8663)" class="st1 st2 st15">Representatives</text>
	<line class="st12" x1="57.8" y1="305.1" x2="48.8" y2="305.1"/>
</g>
</svg>
