<?xml version="1.0" encoding="utf-8"?>
<!-- Generator: Adobe Illustrator 21.1.0, SVG Export Plug-In . SVG Version: 6.00 Build 0)  -->
<svg version="1.1" id="Layer_1" xmlns="http://www.w3.org/2000/svg" xmlns:xlink="http://www.w3.org/1999/xlink" x="0px" y="0px"
	 viewBox="0 0 1280 308.6" style="enable-background:new 0 0 1280 308.6;" xml:space="preserve">
<style type="text/css">
	.st0{fill:none;stroke:#000000;stroke-width:2;stroke-miterlimit:10;}
	.st1{fill:none;}
	.st2{fill:#4D4D4D;}
	.st3{font-family:'MyriadPro-Bold';}
	.st4{font-size:18px;}
	.st5{fill:#FF1D25;}
	.st6{font-size:12px;}
	.st7{font-family:'MyriadPro-Regular';}
	.st8{fill:#009245;}
	.st9{font-size:14px;}
	.st10{fill:#F7931E;stroke:#030303;stroke-miterlimit:10;}
	.st11{font-size:10px;}
	.st12{fill:#CCCCCC;stroke:#666666;stroke-miterlimit:10;}
	.st13{fill:#F7931E;}
	.st14{fill:#0000FF;}
	.st15{fill:#FF0000;}
	.st16{fill:#ED1C24;}
	.st17{fill:none;stroke:#000000;stroke-miterlimit:10;}
	.st18{fill:#FF0000;stroke:#030303;stroke-miterlimit:10;}
</style>
<g id="Layer_1_1_">
</g>
<g id="map">
	<line class="st0" x1="49.7" y1="6.9" x2="49.7" y2="303.2"/>
	<line class="st0" x1="58.3" y1="7.9" x2="49.3" y2="7.9"/>
	<rect x="26.3" y="89.6" class="st1" width="17.3" height="131"/>
	<text transform="matrix(0 -1 1 0 39.1127 173.8111)" class="st2 st3 st4">MAP</text>
	<line class="st0" x1="57.8" y1="302.6" x2="48.8" y2="302.6"/>
	<path class="st0" d="M49.8,309.9"/>
	<rect x="26.3" y="392.5" class="st1" width="17.3" height="131"/>
	<rect x="130.3" y="28.6" class="st1" width="125.5" height="15"/>
	<text transform="matrix(1 0 0 1 146.3411 37.0806)" class="st5 st3 st6">[n]int64{1, 2, ... n}</text>
	<rect x="67.8" y="28.6" class="st1" width="83" height="11"/>
	<text transform="matrix(1 0 0 1 76.1932 37.0806)" class="st2 st7 st6">A.window1 =</text>
	<rect x="130.3" y="52.6" class="st1" width="125.5" height="15"/>
	<text transform="matrix(1 0 0 1 146.3411 61.0806)" class="st5 st3 st6">[n]int64{1, 2, ... n}</text>
	<rect x="67.8" y="52.6" class="st1" width="83" height="11"/>
	<text transform="matrix(1 0 0 1 76.1932 61.0806)" class="st2 st7 st6">A.window2 =</text>
	<rect x="130.3" y="85.6" class="st1" width="125.5" height="15"/>
	<text transform="matrix(1 0 0 1 146.3411 94.0808)" class="st8 st3 st6">[n]int64{1, 2, ... n}</text>
	<rect x="67.8" y="85.6" class="st1" width="83" height="11"/>
	<text transform="matrix(1 0 0 1 76.3851 94.0807)" class="st2 st7 st6">C.window9 =</text>
	
		<rect x="136.8" y="53.1" transform="matrix(3.367850e-03 -1 1 3.367850e-03 22.0893 278.7459)" class="st1" width="28.2" height="150.4"/>
	<text transform="matrix(1 0 0 1 125.7402 123.797)" class="st2 st7 st9">Minhash</text>
	<text transform="matrix(1 0 0 1 119.7402 140.5969)" class="st2 st7 st9">Signatures</text>
	<rect x="76.2" y="66.1" class="st1" width="163.2" height="11"/>
	<text transform="matrix(1 0 0 1 77.0483 74.5807)" class="st2 st7 st6">.................................................................</text>
	
		<rect x="136.8" y="192" transform="matrix(3.367850e-03 -1 1 3.367850e-03 -116.8105 417.1304)" class="st1" width="28.2" height="150.4"/>
	<text transform="matrix(1 0 0 1 86.6807 262.7602)" class="st2 st7 st9">Query Sequence Read</text>
	<rect x="128.1" y="236.8" class="st10" width="45.3" height="4"/>
	<g>
		<g>
			<line class="st0" x1="321.1" y1="80.4" x2="248" y2="80.4"/>
			<g>
				<polygon points="315.4,73 318.6,80.4 315.4,87.8 333,80.4 				"/>
			</g>
		</g>
	</g>
	<rect x="248" y="68.6" class="st1" width="68.7" height="20.3"/>
	<text transform="matrix(1 0 0 1 273.6335 75.661)" class="st3 st11">LSH</text>
	<g>
		<g>
			<line class="st0" x1="321.1" y1="244.4" x2="248" y2="244.4"/>
			<g>
				<polygon points="315.4,237 318.6,244.4 315.4,251.8 333,244.4 				"/>
			</g>
		</g>
	</g>
	<rect x="248" y="232.5" class="st1" width="68.7" height="20.3"/>
	<text transform="matrix(1 0 0 1 257.4933 239.5871)" class="st3 st11">QC &amp; HASH</text>
	<rect x="340.1" y="71.1" class="st12" width="18" height="18"/>
	<rect x="360.8" y="71.1" class="st12" width="18" height="18"/>
	<rect x="381.6" y="71.1" class="st12" width="18" height="18"/>
	<rect x="402.3" y="71.1" class="st12" width="18" height="18"/>
	<rect x="423.1" y="71.1" class="st12" width="18" height="18"/>
	<rect x="443.8" y="71.1" class="st12" width="18" height="18"/>
	<rect x="464.6" y="71.1" class="st12" width="18" height="18"/>
	<rect x="485.3" y="71.1" class="st12" width="18" height="18"/>
	
		<rect x="409" y="53.2" transform="matrix(3.367850e-03 -1 1 3.367850e-03 293.3381 551.045)" class="st1" width="28.2" height="150.4"/>
	<text transform="matrix(1 0 0 1 398.691 123.797)" class="st2 st7 st9">Sharded</text>
	<text transform="matrix(1 0 0 1 391.991 140.5969)" class="st2 st7 st9">Signatures</text>
	
		<rect x="406.6" y="192" transform="matrix(3.367850e-03 -1 1 3.367850e-03 152.0965 687.0299)" class="st1" width="28.2" height="150.4"/>
	<text transform="matrix(1 0 0 1 373.2926 262.7602)" class="st2 st7 st9">Query Signature</text>
	<rect x="357.6" y="233.3" class="st1" width="125.5" height="15"/>
	<text transform="matrix(1 0 0 1 373.6373 241.7982)" class="st13 st3 st6">[n]int64{1, 2, ... n}</text>
	<circle class="st14" cx="344.5" cy="75.4" r="3.4"/>
	<circle class="st14" cx="386.1" cy="75.4" r="3.4"/>
	<circle class="st14" cx="406.9" cy="75.4" r="3.4"/>
	<circle class="st14" cx="448.5" cy="75.4" r="3.4"/>
	<circle class="st15" cx="353.5" cy="75.4" r="3.4"/>
	<circle class="st15" cx="374.3" cy="75.4" r="3.4"/>
	<circle class="st15" cx="415.8" cy="75.4" r="3.4"/>
	<circle class="st15" cx="457.1" cy="75.4" r="3.4"/>
	<circle class="st15" cx="436.2" cy="75.4" r="3.4"/>
	<circle class="st8" cx="365.5" cy="83.8" r="3.4"/>
	<circle class="st8" cx="386.1" cy="83.8" r="3.4"/>
	<circle class="st8" cx="470.2" cy="83.8" r="3.4"/>
	<circle class="st8" cx="490.9" cy="83.8" r="3.4"/>
	<g>
		<g>
			<line class="st0" x1="647.5" y1="162.7" x2="574.4" y2="162.7"/>
			<g>
				<polygon points="641.9,155.3 645,162.7 641.9,170.1 659.4,162.7 				"/>
			</g>
		</g>
	</g>
	<line class="st0" x1="574.4" y1="162.7" x2="516" y2="80.1"/>
	<line class="st0" x1="574.4" y1="162.7" x2="516" y2="245.3"/>
	<rect x="574.1" y="150.2" class="st1" width="68.7" height="20.3"/>
	<text transform="matrix(1 0 0 1 592.7924 157.3277)" class="st3 st11">QUERY</text>
	<g>
		<g>
			<line class="st0" x1="844.5" y1="162.7" x2="771.5" y2="162.7"/>
			<g>
				<polygon points="838.9,155.3 842.1,162.7 838.9,170.1 856.5,162.7 				"/>
			</g>
		</g>
	</g>
	<rect x="771.1" y="150.2" class="st1" width="68.7" height="20.3"/>
	<text transform="matrix(1 0 0 1 779.7213 157.3277)" class="st3 st11">SIMILARITY</text>
	<rect x="653.3" y="142.6" class="st1" width="125.5" height="15"/>
	<text transform="matrix(1 0 0 1 669.3368 151.1594)" class="st5 st3 st6">[n]int64{1, 2, ... n}</text>
	<rect x="653.3" y="171.4" class="st1" width="125.5" height="15"/>
	<text transform="matrix(1 0 0 1 669.3368 179.9064)" class="st5 st3 st6">[n]int64{1, 2, ... n}</text>
	<rect x="653.3" y="157.7" class="st1" width="125.5" height="15"/>
	<text transform="matrix(1 0 0 1 669.3368 166.1782)" class="st8 st3 st6">[n]int64{1, 2, ... n}</text>
	
		<rect x="696.9" y="132.8" transform="matrix(3.367850e-03 -1 1 3.367850e-03 500.666 918.3355)" class="st1" width="28.2" height="150.4"/>
	<text transform="matrix(1 0 0 1 681.0197 203.4581)" class="st2 st7 st9">Candidate</text>
	<text transform="matrix(1 0 0 1 680.0197 220.258)" class="st2 st7 st9">Signatures</text>
	<rect x="886" y="145.9" class="st1" width="125.5" height="15"/>
	<text transform="matrix(1 0 0 1 929.389 154.3876)" class="st3 st6">| A </text>
	<text transform="matrix(1 0 0 1 952.489 154.3876)" class="st3 st6"> </text>
	<text transform="matrix(1 0 0 1 954.989 154.3876)" class="st5 st3 st6">B</text>
	<text transform="matrix(1 0 0 1 962.189 154.3876)" class="st3 st6"> |</text>
	<rect x="886" y="164.5" class="st1" width="125.5" height="15"/>
	<text transform="matrix(1 0 0 1 928.8127 173.0329)" class="st3 st6">| </text>
	<text transform="matrix(1 0 0 1 934.6127 173.0329)" class="st13 st3 st6">A</text>
	<text transform="matrix(1 0 0 1 942.5127 173.0329)" class="st3 st6"> U </text>
	<text transform="matrix(1 0 0 1 955.5127 173.0329)" class="st16 st3 st6">B</text>
	<text transform="matrix(1 0 0 1 962.8127 173.0329)" class="st3 st6"> |</text>
	
		<rect x="1115.1" y="132.7" transform="matrix(3.367850e-03 -1 1 3.367850e-03 917.53 1336.436)" class="st1" width="28.2" height="150.4"/>
	<text transform="matrix(1 0 0 1 1070.3414 203.4581)" class="st2 st7 st9">Mapped Reference / </text>
	<text transform="matrix(1 0 0 1 1098.9414 220.258)" class="st2 st7 st9">Query Pair</text>
	<rect x="830.2" y="155.2" class="st1" width="125.5" height="15"/>
	<text transform="matrix(1 0 0 1 865.5065 163.7103)" class="st3 st6">J ( </text>
	<text transform="matrix(1 0 0 1 879.0065 163.7103)" class="st13 st3 st6">A</text>
	<text transform="matrix(1 0 0 1 886.9065 163.7103)" class="st3 st6"> , </text>
	<text transform="matrix(1 0 0 1 894.9065 163.7103)" class="st16 st3 st6">B</text>
	<text transform="matrix(1 0 0 1 902.1064 163.7103)" class="st3 st6"> )  =</text>
	<line class="st17" x1="926.1" y1="160.4" x2="971.4" y2="160.4"/>
	<rect x="935.9" y="137.2" class="st1" width="25.7" height="17.3"/>
	<text transform="matrix(1 0 0 -1 944.6609 146.0142)" class="st3 st6">U</text>
	
		<rect x="912.1" y="132.7" transform="matrix(3.367850e-03 -1 1 3.367850e-03 715.1617 1133.3364)" class="st1" width="28.2" height="150.4"/>
	<text transform="matrix(1 0 0 1 904.2696 203.4581)" class="st2 st7 st9">Jaccard</text>
	<text transform="matrix(1 0 0 1 898.9696 220.258)" class="st2 st7 st9">Similarity</text>
	<g>
		<g>
			<line class="st0" x1="1058.6" y1="162.7" x2="985.5" y2="162.7"/>
			<g>
				<polygon points="1053,155.3 1056.1,162.7 1053,170.1 1070.5,162.7 				"/>
			</g>
		</g>
	</g>
	<rect x="985.2" y="150.2" class="st1" width="68.7" height="20.3"/>
	<text transform="matrix(1 0 0 1 1006.7607 157.3277)" class="st3 st11">RANK</text>
	<rect x="1106.6" y="169.8" class="st10" width="45.3" height="4"/>
	<rect x="1105.8" y="141.5" class="st12" width="47" height="22"/>
	<rect x="1091.2" y="150.5" class="st18" width="76" height="4.5"/>
</g>
</svg>
