<?xml version="1.0" encoding="utf-8"?>
<!-- Generator: Adobe Illustrator 19.2.1, SVG Export Plug-In . SVG Version: 6.00 Build 0)  -->
<svg version="1.1" id="Layer_1" xmlns="http://www.w3.org/2000/svg" xmlns:xlink="http://www.w3.org/1999/xlink" x="0px" y="0px"
	 viewBox="0 0 1200 800" style="enable-background:new 0 0 1200 800;" xml:space="preserve">
<style type="text/css">
	.st0{fill:none;stroke:#000000;stroke-width:4;stroke-miterlimit:10;}
	.st1{stroke:#000000;stroke-width:4;stroke-miterlimit:10;}
	.st2{fill:none;}
	.st3{font-family:'OpenSans';}
	.st4{font-size:18px;}
	.st5{font-family:'OpenSans-Extrabold';}
	.st6{font-size:24px;}
	.st7{fill:none;stroke:#000000;stroke-width:4;stroke-miterlimit:10;stroke-dasharray:12;}
	.st8{font-size:14px;}
	.st9{font-family:'OpenSans-Bold';}
	.st10{font-size:16px;}
	.st11{fill:none;stroke:#999999;stroke-miterlimit:10;}
	.st12{font-family:'OpenSans-Italic';}
	.st13{font-size:32px;}
</style>
<line class="st0" x1="430" y1="445.6" x2="1126.3" y2="445.6"/>
<line class="st0" x1="283.8" y1="445.6" x2="283.8" y2="457.6"/>
<line class="st0" x1="485.7" y1="445.6" x2="485.7" y2="457.6"/>
<line class="st0" x1="611.8" y1="445.6" x2="611.8" y2="457.6"/>
<line class="st0" x1="734.8" y1="445.6" x2="734.8" y2="457.6"/>
<line class="st0" x1="850.7" y1="445.6" x2="850.7" y2="457.6"/>
<line class="st0" x1="974.5" y1="445.6" x2="974.5" y2="457.6"/>
<line class="st0" x1="1094.3" y1="445.6" x2="1094.3" y2="457.6"/>
<polygon class="st1" points="1138.7,445.6 1128.3,451.6 1128.3,439.6 "/>
<rect x="262.5" y="461.9" class="st2" width="42.7" height="26.7"/>
<text transform="matrix(1 0 0 1 262.5002 475.5858)" class="st3 st4">2009</text>
<rect x="464.3" y="461.9" class="st2" width="42.7" height="26.7"/>
<text transform="matrix(1 0 0 1 464.3335 475.5858)" class="st3 st4">2012</text>
<rect x="590.5" y="461.9" class="st2" width="42.7" height="26.7"/>
<text transform="matrix(1 0 0 1 590.5001 475.5858)" class="st3 st4">2013</text>
<rect x="830.2" y="461.9" class="st2" width="42.7" height="26.7"/>
<text transform="matrix(1 0 0 1 830.1668 475.5858)" class="st3 st4">2015</text>
<rect x="713.5" y="461.9" class="st2" width="42.7" height="26.7"/>
<text transform="matrix(1 0 0 1 713.5002 475.5858)" class="st3 st4">2014</text>
<rect x="1069.8" y="461.9" class="st2" width="42.7" height="26.7"/>
<text transform="matrix(1 0 0 1 1069.8335 475.5858)" class="st3 st4">2017</text>
<rect x="953.2" y="461.9" class="st2" width="42.7" height="26.7"/>
<text transform="matrix(1 0 0 1 953.1669 475.5858)" class="st3 st4">2016</text>
<line class="st0" x1="211.3" y1="184.1" x2="211.3" y2="707.1"/>
<rect x="14" y="292.6" class="st2" width="176.3" height="64"/>
<text transform="matrix(1 0 0 1 17.1812 310.8215)"><tspan x="0" y="0" class="st5 st6">ANNOTATION</tspan><tspan x="51.7" y="28.8" class="st5 st6">TOOL</tspan></text>
<rect x="14" y="565.6" class="st2" width="176.3" height="64"/>
<text transform="matrix(1 0 0 1 30.0601 583.8215)"><tspan x="0" y="0" class="st5 st6">DATABASE / </tspan><tspan x="9.3" y="28.8" class="st5 st6">RESOURCE</tspan></text>
<line class="st7" x1="211.3" y1="445.6" x2="0" y2="445.6"/>
<rect y="772.5" class="st2" width="413" height="27.5"/>
<text transform="matrix(1 0 0 1 30.498 783.1396)" class="st3 st8">* designed for environmental / metagenomic samples</text>
<rect x="286" y="261.1" class="st2" width="103.8" height="87"/>
<text transform="matrix(1 0 0 1 286.0362 273.2419)"><tspan x="0" y="0" class="st9 st10">ARDB</tspan><tspan x="0" y="16.8" class="st3 st8">- blast, rpsblast </tspan><tspan x="0" y="33.6" class="st3 st8">&amp; SNP tools</tspan><tspan x="0" y="50.4" class="st3 st8">- ARDB db</tspan></text>
<rect x="413.5" y="324.6" class="st2" width="144.3" height="87"/>
<text transform="matrix(1 0 0 1 413.5 336.7375)"><tspan x="0" y="0" class="st9 st10">ResFinder</tspan><tspan x="0" y="16.8" class="st3 st8">- blast tool</tspan><tspan x="0" y="33.6" class="st3 st8">- can assemble reads</tspan><tspan x="0" y="50.4" class="st3 st8">- ResFinder db</tspan></text>
<rect x="485.7" y="217.6" class="st2" width="123" height="87"/>
<text transform="matrix(1 0 0 1 485.6666 229.7419)"><tspan x="0" y="0" class="st9 st10">CARD RGI</tspan><tspan x="0" y="16.8" class="st3 st8">- blast &amp; protein </tspan><tspan x="0" y="33.6" class="st3 st8">variant tools</tspan><tspan x="0" y="50.4" class="st3 st8">- CARD db</tspan></text>
<line class="st11" x1="283.8" y1="435.2" x2="320.7" y2="335.3"/>
<line class="st11" x1="485.7" y1="397.1" x2="485.7" y2="436.6"/>
<line class="st0" x1="211.3" y1="445.6" x2="276.3" y2="445.6"/>
<line class="st7" x1="430" y1="445.6" x2="276.3" y2="445.6"/>
<rect x="574.2" y="304.6" class="st2" width="159.7" height="87"/>
<text transform="matrix(1 0 0 1 574.2324 316.7419)"><tspan x="0" y="0" class="st9 st10">SEAR *</tspan><tspan x="0" y="16.8" class="st3 st8">- clusters &amp; maps reads</tspan><tspan x="0" y="33.6" class="st3 st8">- customisable db</tspan></text>
<rect x="658" y="205.6" class="st2" width="261.8" height="87"/>
<text transform="matrix(1 0 0 1 658 217.7419)"><tspan x="0" y="0" class="st9 st10">kmerfinder / kmer resistance</tspan><tspan x="0" y="16.8" class="st3 st8">- co-occurence of k-mers</tspan><tspan x="0" y="33.6" class="st3 st8">- ResFinder db</tspan></text>
<line class="st11" x1="734.8" y1="261.1" x2="734.8" y2="436.6"/>
<line class="st11" x1="636.7" y1="356.6" x2="611.8" y2="436.6"/>
<line class="st11" x1="534.4" y1="284.9" x2="611.8" y2="436.6"/>
<rect x="786.8" y="275.9" class="st2" width="172" height="87"/>
<text transform="matrix(1 0 0 1 786.8333 288.0535)"><tspan x="0" y="0" class="st9 st10">mykrobe predictor</tspan><tspan x="0" y="16.8" class="st3 st8">- DeBruijn graph</tspan><tspan x="0" y="33.6" class="st3 st8">- S.</tspan><tspan x="19.6" y="33.6" class="st12 st8">auerus</tspan><tspan x="62.1" y="33.6" class="st3 st8"> &amp; TB db</tspan></text>
<rect x="926.3" y="166.6" class="st2" width="172" height="87"/>
<text transform="matrix(1 0 0 1 926.2878 178.7375)"><tspan x="0" y="0" class="st9 st10">ARGS-OAP *</tspan><tspan x="0" y="16.8" class="st3 st8">- Ublast/blastx tool</tspan><tspan x="0" y="33.6" class="st3 st8">- CARD + ARDB db</tspan></text>
<rect x="862.8" y="348.1" class="st2" width="172" height="87"/>
<text transform="matrix(1 0 0 1 862.8333 360.2419)"><tspan x="0" y="0" class="st9 st10">AMRPlusPlus *</tspan><tspan x="0" y="16.8" class="st3 st8">- maps reads</tspan><tspan x="0" y="33.6" class="st3 st8">- MEGARes db</tspan></text>
<line class="st11" x1="851.6" y1="329.9" x2="850.7" y2="436.6"/>
<line class="st11" x1="927" y1="397.1" x2="974.1" y2="437.7"/>
<line class="st11" x1="1002.9" y1="217.6" x2="974.1" y2="437.7"/>
<rect x="253.2" y="536.6" class="st2" width="103.8" height="87"/>
<text transform="matrix(1 0 0 1 253.2431 548.7332)"><tspan x="0" y="0" class="st9 st10">ARDB</tspan><tspan x="0" y="16.8" class="st3 st8">- ~24k ARGs</tspan><tspan x="0" y="33.6" class="st3 st8">- incl. type &amp; AB</tspan><tspan x="0" y="50.4" class="st3 st8">- offline?</tspan></text>
<rect x="413.5" y="635.6" class="st2" width="144.3" height="87"/>
<text transform="matrix(1 0 0 1 413.5 647.7375)"><tspan x="0" y="0" class="st9 st10">ResFinder</tspan><tspan x="0" y="16.8" class="st3 st8">- ~2k ARGs</tspan><tspan x="0" y="33.6" class="st3 st8">- only acquired ARGs</tspan></text>
<rect x="561" y="528.6" class="st2" width="144.3" height="87"/>
<text transform="matrix(1 0 0 1 561 540.7375)"><tspan x="0" y="0" class="st9 st10">CARD</tspan><tspan x="0" y="16.8" class="st3 st8">- ~2k ARGs</tspan><tspan x="0" y="33.6" class="st3 st8">- incl. ontology</tspan></text>
<rect x="661.7" y="635.6" class="st2" width="144.3" height="87"/>
<text transform="matrix(1 0 0 1 661.7324 647.7375)"><tspan x="0" y="0" class="st9 st10">ARG-annot</tspan><tspan x="0" y="16.8" class="st3 st8">- ~2k ARGs</tspan><tspan x="0" y="33.6" class="st3 st8">- db only</tspan></text>
<line class="st11" x1="733.9" y1="485.2" x2="733.9" y2="629.3"/>
<line class="st11" x1="485.7" y1="485.2" x2="485.7" y2="629.3"/>
<line class="st11" x1="611.8" y1="479.8" x2="611.8" y2="519.2"/>
<line class="st11" x1="283.8" y1="485.2" x2="283.8" y2="524.7"/>
<rect x="804.5" y="528.6" class="st2" width="144.3" height="87"/>
<text transform="matrix(1 0 0 1 804.5 540.7375)"><tspan x="0" y="0" class="st9 st10">Resfams *</tspan><tspan x="0" y="16.8" class="st3 st8">- hidden markov </tspan><tspan x="0" y="33.6" class="st3 st8">models &amp; protein </tspan><tspan x="0" y="50.4" class="st3 st8">family db</tspan><tspan x="0" y="67.2" class="st3 st8">- ~200 HMM profiles</tspan></text>
<line class="st11" x1="850.7" y1="479.8" x2="850.7" y2="519.2"/>
<rect x="902.3" y="636.8" class="st2" width="144.3" height="43.5"/>
<text transform="matrix(1 0 0 1 902.3328 648.979)"><tspan x="0" y="0" class="st9 st10">MEGARes *</tspan><tspan x="0" y="16.8" class="st3 st8">- ~4k ARGs</tspan></text>
<line class="st11" x1="974.5" y1="486.7" x2="974.5" y2="630.8"/>
<rect y="52.6" class="st2" width="1200" height="64"/>
<text transform="matrix(1 0 0 1 289.148 76.9016)" class="st5 st13">Antibiotic Resistance Gene Resources</text>
<rect x="1059.8" y="566.4" class="st2" width="105.5" height="87"/>
<text transform="matrix(1 0 0 1 1059.7505 578.5123)"><tspan x="0" y="0" class="st9 st10">GEAR</tspan><tspan x="0" y="16.8" class="st3 st8">- gene, ncRNA &amp; </tspan><tspan x="0" y="33.6" class="st3 st8">SNP drug</tspan><tspan x="0" y="50.4" class="st3 st8">associations</tspan><tspan x="0" y="67.2" class="st3 st8">- ~2000 ARGs</tspan></text>
<line class="st11" x1="1092.8" y1="479.3" x2="1103.7" y2="557.3"/>
<rect x="949.3" y="685.5" class="st2" width="144.3" height="87"/>
<text transform="matrix(1 0 0 1 949.3333 697.6602)"><tspan x="0" y="0" class="st9 st10">FARME db *</tspan><tspan x="0" y="16.8" class="st3 st8">- hidden markov </tspan><tspan x="0" y="33.6" class="st3 st8">models &amp; DNA/pro</tspan><tspan x="123.1" y="33.6" class="st3 st8">-</tspan><tspan x="0" y="50.4" class="st3 st8">tein seqs</tspan><tspan x="0" y="67.2" class="st3 st8">- ~11k ARGs</tspan></text>
<line class="st11" x1="1092.8" y1="479.3" x2="1000.1" y2="679.1"/>
<rect x="1070.6" y="240.6" class="st2" width="172" height="87"/>
<text transform="matrix(1 0 0 1 1070.5605 252.7874)"><tspan x="0" y="0" class="st9 st10">VRprofile</tspan><tspan x="0" y="16.8" class="st3 st8">- HMM/blast</tspan><tspan x="0" y="33.6" class="st3 st8">- uses mobilomeDB</tspan></text>
<rect x="996.2" y="314.2" class="st2" width="172" height="87"/>
<text transform="matrix(1 0 0 1 996.2393 326.402)"><tspan x="0" y="0" class="st9 st10">ARIBA</tspan><tspan x="0" y="16.8" class="st3 st8">- maps &amp; assembles</tspan><tspan x="0" y="33.6" class="st3 st8">reads</tspan><tspan x="0" y="50.4" class="st3 st8">- customisable db</tspan></text>
<line class="st11" x1="1059.8" y1="385.2" x2="1095.8" y2="437.7"/>
<line class="st11" x1="1143.5" y1="304.6" x2="1095.8" y2="437.7"/>
</svg>
